<svg width="500" height="137" viewBox="0 0 500 137" fill="none" xmlns="http://www.w3.org/2000/svg">
<rect width="500" height="137" rx="30" fill="#262327"/>
<path d="M150.96 78.04H140.48L138.8 83H131.64L141.8 54.92H149.72L159.88 83H152.64L150.96 78.04ZM149.2 72.76L145.72 62.48L142.28 72.76H149.2ZM176.572 60.44C179.186 60.44 181.266 61.2933 182.812 63C184.386 64.68 185.172 67 185.172 69.96V83H178.372V70.88C178.372 69.3867 177.986 68.2267 177.212 67.4C176.439 66.5733 175.399 66.16 174.092 66.16C172.786 66.16 171.746 66.5733 170.972 67.4C170.199 68.2267 169.812 69.3867 169.812 70.88V83H162.972V60.68H169.812V63.64C170.506 62.6533 171.439 61.88 172.612 61.32C173.786 60.7333 175.106 60.44 176.572 60.44ZM193.365 58.36C192.165 58.36 191.179 58.0133 190.405 57.32C189.659 56.6 189.285 55.72 189.285 54.68C189.285 53.6133 189.659 52.7333 190.405 52.04C191.179 51.32 192.165 50.96 193.365 50.96C194.539 50.96 195.499 51.32 196.245 52.04C197.019 52.7333 197.405 53.6133 197.405 54.68C197.405 55.72 197.019 56.6 196.245 57.32C195.499 58.0133 194.539 58.36 193.365 58.36ZM196.765 60.68V83H189.925V60.68H196.765ZM233.522 54.92V83H226.682V66.16L220.402 83H214.882L208.562 66.12V83H201.722V54.92H209.802L217.682 74.36L225.482 54.92H233.522ZM237.081 71.8C237.081 69.5067 237.508 67.4933 238.361 65.76C239.241 64.0267 240.428 62.6933 241.921 61.76C243.414 60.8267 245.081 60.36 246.921 60.36C248.494 60.36 249.868 60.68 251.041 61.32C252.241 61.96 253.161 62.8 253.801 63.84V60.68H260.641V83H253.801V79.84C253.134 80.88 252.201 81.72 251.001 82.36C249.828 83 248.454 83.32 246.881 83.32C245.068 83.32 243.414 82.8533 241.921 81.92C240.428 80.96 239.241 79.6133 238.361 77.88C237.508 76.12 237.081 74.0933 237.081 71.8ZM253.801 71.84C253.801 70.1333 253.321 68.7867 252.361 67.8C251.428 66.8133 250.281 66.32 248.921 66.32C247.561 66.32 246.401 66.8133 245.441 67.8C244.508 68.76 244.041 70.0933 244.041 71.8C244.041 73.5067 244.508 74.8667 245.441 75.88C246.401 76.8667 247.561 77.36 248.921 77.36C250.281 77.36 251.428 76.8667 252.361 75.88C253.321 74.8933 253.801 73.5467 253.801 71.84ZM279.189 60.44C281.803 60.44 283.883 61.2933 285.429 63C287.003 64.68 287.789 67 287.789 69.96V83H280.989V70.88C280.989 69.3867 280.603 68.2267 279.829 67.4C279.056 66.5733 278.016 66.16 276.709 66.16C275.403 66.16 274.363 66.5733 273.589 67.4C272.816 68.2267 272.429 69.3867 272.429 70.88V83H265.589V60.68H272.429V63.64C273.123 62.6533 274.056 61.88 275.229 61.32C276.403 60.7333 277.723 60.44 279.189 60.44ZM295.983 58.36C294.783 58.36 293.796 58.0133 293.023 57.32C292.276 56.6 291.903 55.72 291.903 54.68C291.903 53.6133 292.276 52.7333 293.023 52.04C293.796 51.32 294.783 50.96 295.983 50.96C297.156 50.96 298.116 51.32 298.863 52.04C299.636 52.7333 300.023 53.6133 300.023 54.68C300.023 55.72 299.636 56.6 298.863 57.32C298.116 58.0133 297.156 58.36 295.983 58.36ZM299.383 60.68V83H292.543V60.68H299.383ZM302.979 71.8C302.979 69.5067 303.406 67.4933 304.259 65.76C305.139 64.0267 306.326 62.6933 307.819 61.76C309.313 60.8267 310.979 60.36 312.819 60.36C314.393 60.36 315.766 60.68 316.939 61.32C318.139 61.96 319.059 62.8 319.699 63.84V60.68H326.539V83H319.699V79.84C319.033 80.88 318.099 81.72 316.899 82.36C315.726 83 314.353 83.32 312.779 83.32C310.966 83.32 309.313 82.8533 307.819 81.92C306.326 80.96 305.139 79.6133 304.259 77.88C303.406 76.12 302.979 74.0933 302.979 71.8ZM319.699 71.84C319.699 70.1333 319.219 68.7867 318.259 67.8C317.326 66.8133 316.179 66.32 314.819 66.32C313.459 66.32 312.299 66.8133 311.339 67.8C310.406 68.76 309.939 70.0933 309.939 71.8C309.939 73.5067 310.406 74.8667 311.339 75.88C312.299 76.8667 313.459 77.36 314.819 77.36C316.179 77.36 317.326 76.8667 318.259 75.88C319.219 74.8933 319.699 73.5467 319.699 71.84ZM348.488 68.6C350.114 68.9467 351.421 69.76 352.408 71.04C353.394 72.2933 353.888 73.7333 353.888 75.36C353.888 77.7067 353.061 79.5733 351.408 80.96C349.781 82.32 347.501 83 344.568 83H331.488V54.92H344.128C346.981 54.92 349.208 55.5733 350.808 56.88C352.434 58.1867 353.248 59.96 353.248 62.2C353.248 63.8533 352.808 65.2267 351.928 66.32C351.074 67.4133 349.928 68.1733 348.488 68.6ZM338.328 66.28H342.808C343.928 66.28 344.781 66.04 345.368 65.56C345.981 65.0533 346.288 64.32 346.288 63.36C346.288 62.4 345.981 61.6667 345.368 61.16C344.781 60.6533 343.928 60.4 342.808 60.4H338.328V66.28ZM343.368 77.48C344.514 77.48 345.394 77.2267 346.008 76.72C346.648 76.1867 346.968 75.4267 346.968 74.44C346.968 73.4533 346.634 72.68 345.968 72.12C345.328 71.56 344.434 71.28 343.288 71.28H338.328V77.48H343.368ZM364.695 64.4C365.495 63.1733 366.495 62.2133 367.695 61.52C368.895 60.8 370.228 60.44 371.695 60.44V67.68H369.815C368.108 67.68 366.828 68.0533 365.975 68.8C365.122 69.52 364.695 70.8 364.695 72.64V83H357.855V60.68H364.695V64.4ZM373.604 71.8C373.604 69.5067 374.031 67.4933 374.884 65.76C375.764 64.0267 376.951 62.6933 378.444 61.76C379.938 60.8267 381.604 60.36 383.444 60.36C385.018 60.36 386.391 60.68 387.564 61.32C388.764 61.96 389.684 62.8 390.324 63.84V60.68H397.164V83H390.324V79.84C389.658 80.88 388.724 81.72 387.524 82.36C386.351 83 384.978 83.32 383.404 83.32C381.591 83.32 379.938 82.8533 378.444 81.92C376.951 80.96 375.764 79.6133 374.884 77.88C374.031 76.12 373.604 74.0933 373.604 71.8ZM390.324 71.84C390.324 70.1333 389.844 68.7867 388.884 67.8C387.951 66.8133 386.804 66.32 385.444 66.32C384.084 66.32 382.924 66.8133 381.964 67.8C381.031 68.76 380.564 70.0933 380.564 71.8C380.564 73.5067 381.031 74.8667 381.964 75.88C382.924 76.8667 384.084 77.36 385.444 77.36C386.804 77.36 387.951 76.8667 388.884 75.88C389.844 74.8933 390.324 73.5467 390.324 71.84ZM411.193 83.32C409.246 83.32 407.513 82.9867 405.993 82.32C404.473 81.6533 403.273 80.7467 402.393 79.6C401.513 78.4267 401.019 77.12 400.913 75.68H407.673C407.753 76.4533 408.113 77.08 408.753 77.56C409.393 78.04 410.179 78.28 411.113 78.28C411.966 78.28 412.619 78.12 413.073 77.8C413.553 77.4533 413.793 77.0133 413.793 76.48C413.793 75.84 413.459 75.3733 412.793 75.08C412.126 74.76 411.046 74.4133 409.553 74.04C407.953 73.6667 406.619 73.28 405.553 72.88C404.486 72.4533 403.566 71.8 402.793 70.92C402.019 70.0133 401.633 68.8 401.633 67.28C401.633 66 401.979 64.84 402.673 63.8C403.393 62.7333 404.433 61.8933 405.793 61.28C407.179 60.6667 408.819 60.36 410.713 60.36C413.513 60.36 415.713 61.0533 417.313 62.44C418.939 63.8267 419.873 65.6667 420.113 67.96H413.793C413.686 67.1867 413.339 66.5733 412.753 66.12C412.193 65.6667 411.446 65.44 410.513 65.44C409.713 65.44 409.099 65.6 408.673 65.92C408.246 66.2133 408.033 66.6267 408.033 67.16C408.033 67.8 408.366 68.28 409.033 68.6C409.726 68.92 410.793 69.24 412.233 69.56C413.886 69.9867 415.233 70.4133 416.273 70.84C417.313 71.24 418.219 71.9067 418.993 72.84C419.793 73.7467 420.206 74.9733 420.233 76.52C420.233 77.8267 419.859 79 419.113 80.04C418.393 81.0533 417.339 81.8533 415.953 82.44C414.593 83.0267 413.006 83.32 411.193 83.32ZM427.858 58.36C426.658 58.36 425.671 58.0133 424.898 57.32C424.151 56.6 423.778 55.72 423.778 54.68C423.778 53.6133 424.151 52.7333 424.898 52.04C425.671 51.32 426.658 50.96 427.858 50.96C429.031 50.96 429.991 51.32 430.738 52.04C431.511 52.7333 431.898 53.6133 431.898 54.68C431.898 55.72 431.511 56.6 430.738 57.32C429.991 58.0133 429.031 58.36 427.858 58.36ZM431.258 60.68V83H424.418V60.68H431.258ZM443.054 53.4V83H436.214V53.4H443.054Z" fill="white"/>
<rect x="60" y="46" width="63" height="45" rx="15" fill="#DA0C0C"/>
<path d="M105 68.5L84.75 77.5933V59.4067L105 68.5Z" fill="white"/>
</svg>
