<svg id="Camada_1" data-name="Camada 1" xmlns="http://www.w3.org/2000/svg" viewBox="0 0 550.83 298.98"><defs><style>.cls-1{fill:#fefefe;}.cls-2{fill:#a7774b;}.cls-3{fill:#1a0a0b;}.cls-4{fill:#96806a;}.cls-5{fill:#262327;}.cls-6{fill:#3a2b20;}.cls-7{fill:#916441;}.cls-8{fill:#e0cba6;}.cls-9{fill:#9f7045;}.cls-10{fill:#654430;}.cls-11{fill:#bb7d70;}.cls-12{fill:#d7c568;}.cls-13{fill:#543a2a;}.cls-14{fill:#b70922;}.cls-15{fill:#5c72af;}.cls-16{fill:#dbdbdb;}</style></defs><title>dog</title><path class="cls-1" d="M505.64,513Q369,513,232.3,513c-1.83,0-2.14-.41-2.13-2.17q.08-147.31,0-294.63c0-1.75.28-2.18,2.12-2.18q273.24.09,546.47,0c1.92,0,2.24.46,2.24,2.28q-.07,147.32,0,294.64c0,1.62-.29,2.05-2,2.05Q642.31,512.92,505.64,513Zm60.3-131.7-.44-.52c0-.88-.66-.84-1.27-.83l-1-.83c-.12-1-.39-2-.47-3-.27-3.7,2.23-6.37,3.34-9.55.95-2.72,2.55-5.26,2.5-8.28a80.78,80.78,0,0,0,3.54-20.18,18.76,18.76,0,0,0-.89-7.71c-.13-.6-.26-1.19-.4-1.78a1.79,1.79,0,0,0-.76-2.34l-.12-.75c.74-1.18-.55-2-.56-3,.52-1.15-.56-1.88-.75-2.86a38.21,38.21,0,0,0-6.84-15.18c-.47-.65-.43-1.81-1.58-1.91-.54-.76-1-1.55-1.63-2.28-2.5-3.13-5.24-6-9.13-7.41-.17-.64-.54-.94-1.22-.75l-.43-.18a5.21,5.21,0,0,0-3.06-2.24c-.11-.35-.2-.7-.32-1-1.38-3.83-.87-4.56,3.28-4.74,1.24-.06,2.5-.08,3.38-1.19l1.59-.37c.66.29,1,0,1.21-.63a5.5,5.5,0,0,0,1.23-.38c3.61-2.17,5.89-5.64,8.52-8.76A29.58,29.58,0,0,0,570.76,255c.24-3.43-1.89-5-5.13-3.9-2.88.93-5.63,2.26-8.88,2a40.06,40.06,0,0,0-8.82.23c-2.06.26-4.45.17-5.89,2.26l-1.42-.13a11,11,0,0,0-3.89-.78l-.88-.22a1.68,1.68,0,0,0-1.33-.22L533.35,253a7.15,7.15,0,0,0-.65-3.09l-.24-1.33a1.46,1.46,0,0,0-.23-1.32l-.27-.9c-.65-4.67-2.1-6.1-6.72-6.66a14.88,14.88,0,0,1-2.82-.5c-7.83-2.56-16-2.32-24-2.62a7,7,0,0,0-6.07,3,15.51,15.51,0,0,0-2.71,5l-.11.05,0,.12c-.48.22-1.11.31-1,1.08a7.82,7.82,0,0,0-1.41,2.88,1.38,1.38,0,0,0-.55,1.14l-.62.73-3.54.24a2.71,2.71,0,0,0-1.77.21,4.71,4.71,0,0,0-2.57.33l-4.61.42a11.72,11.72,0,0,0-4.39-1.91c-4.35-.94-8.71-1.84-13.05-2.77-2.94-.63-5.9-1.12-8.16-3.47-2-2.08-3.86-1.52-4.53,1.23a14.4,14.4,0,0,0-.17,1.75c-.91,7.7,1.05,14.88,4.2,21.76,2.18,4.75,5.1,8.92,10.36,10.95a21.26,21.26,0,0,0,9.07,1.36c1.09-.05,2.13.15,1.81,1.49a21.7,21.7,0,0,1-4.79,9.65A16.39,16.39,0,0,0,459.62,306c.67,4.7,1.72,9.38,1.53,14.19a18.31,18.31,0,0,1-2.61,8c-.86,1.6-2.65.46-3.63,1.49-3.39,2.11-4.55,4.16-3.86,6.85a2.38,2.38,0,0,1-.69,1.56c-3.47,3.15-4,7.34-4.33,11.7-.18,2.63-.66,5.23-1,7.84-1,6.88-2.6,13.7-1.76,20.73.08.69-.25,1.52.62,2,.1,1.93-.32,3.91.64,5.75-.19.39-.39.78-.58,1.18-1.27.46-2.27,1.12-1.85,2.72,2.33,8.84,3.49,17.92,5.21,26.87,1.6,8.35,5.74,15.18,10.49,21.81,1.79,2.49,4.12,4.58,4.82,7.74a3.12,3.12,0,0,0,.82,1.3c3.41,3.62,5.72,8.1,9.38,11.58a4.77,4.77,0,0,1,1,5.78c-1,2.15-.43,4.78,0,7.16a3.08,3.08,0,0,0,2.28,2.21c1,.36,2.08.65,3.13,1l1,7c-.13,4.57,0,9.07-1.67,13.56-1.51,4-3.28,7.87-4.25,12-.36,1.59-.81,3.29,1,4.44l4.89,0h9.24c2.41,0,4.82,0,7.23.09.91,0,1.26-.16,1.19-1.22-.13-1.67,0-3.35.05-5,.24-3.69.65-7.39-.64-11,.58-4.34-.95-8.56-.8-12.88a5,5,0,0,0,.49-3.08c.09-.43.15-.87.27-1.29.27-1-.52-2.25.95-2.86,4.12-1.69,5.07-4.32,3.49-8.54-1-2.64-2.13-5.33-1.17-8.32a10.85,10.85,0,0,0,.37-3.51c-.07-3.8,2.2-6,5.16-7.75,5.25-3,11.08-2.59,16.81-2.64a1.28,1.28,0,0,1,1.15.51c.64.89.76,5.94,0,6.81-1.5,1.77-1.52,3.87-1.67,6-.21,2.91,2,3.44,3.86,4.33-.83,5.1.25,10.25-.5,15.35a1.5,1.5,0,0,0,1,1.6c1.71.71,3.36,2,5.37.8a1.12,1.12,0,0,1,1.55.4c.69.85,1.66.73,2.61.88,1.32.2,2.38-.66,3.64-.64,3,0,3.9-.9,4.08-3.86a126.65,126.65,0,0,0,0-13.64c.43-.05.75-.22.81-.7a5.36,5.36,0,0,0,3-1.13c.6,0,1-.13.49-.78l.19-.9c.92-.76.92-1.5,0-2.24l-.21-1.78c.55-.45.37-.71-.22-.88-.89-2.22-1.3-4.32.21-6.6a12.74,12.74,0,0,0,1.66-5.17l.66-1.51c.73-.19,1.74.4,2.14-.75,1.7-.62,2.75-2,3.94-3.27,1.62-.5,1.44-2,1.73-3.22a30.22,30.22,0,0,0,.42-8.33,12.94,12.94,0,0,1,2.35-7.83c2.42-3.71,4.78-7.49,5.47-12,.63-4.16,2.8-7.88,3.43-12,.13-.87.88-1.84-.42-2.46l-.15-.92c.64-.58.56-1-.26-1.3l-.19-.91c.56-.45.41-.72-.22-.87-.71-1.7-1.42-3.41-2.12-5.11C566.86,381.61,566.6,381.29,565.94,381.25Z" transform="translate(-230.17 -214.02)"/><path class="cls-2" d="M454.91,329.73c1-1,2.77.11,3.63-1.49a18.31,18.31,0,0,0,2.61-8c.19-4.81-.86-9.49-1.53-14.19a16.39,16.39,0,0,1,4.17-14.16,21.7,21.7,0,0,0,4.79-9.65c.32-1.34-.72-1.54-1.81-1.49a21.26,21.26,0,0,1-9.07-1.36c-5.26-2-8.18-6.2-10.36-10.95-3.15-6.88-5.11-14.06-4.2-21.76a14.4,14.4,0,0,1,.17-1.75c.67-2.75,2.53-3.31,4.53-1.23,2.26,2.35,5.22,2.84,8.16,3.47,4.34.93,8.7,1.83,13.05,2.77a11.72,11.72,0,0,1,4.39,1.91c-1.54.5-3.19.73-4.5,1.85a2.12,2.12,0,0,1-2.06.13c-3-3.62-7.22-4.9-11.5-6.08-1.7-.41-3.42-.77-5.1-1.25-.44-.13-.8-.78-1.32-.28s-.27,1-.15,1.46a35.44,35.44,0,0,1,1.17,4.44,17.2,17.2,0,0,0,4,9.68c1,1.13,2.8,2.27,1.75,4.47-.08.16-.09,2.16,1,2.57,1.51.56,1.72,1.65,1.66,3,0,.9,0,1.68,1.31,1.2.56-.2,1,.24,1.37.55a8,8,0,0,0,5.39,1.5c2.08-.13,3.22.54,3.4,2.65a.75.75,0,0,0-.34.92c0,.05.11.08.17.12l.25-1c1.34-.15,1.73-1.08,1.83-2.24,1.78-1.92,2.57-4.64,5-6.07a.79.79,0,0,0,0-1.18c-.4-.41-.74-.12-1.11.18-2.23,1.75-3.48,4.21-4.86,6.58-1-.09-1.13-.91-1.27-1.66s0-1.3-.85-1.49c0-1.87-.49-4,.2-5.56s.29-2.83-.17-4.28c-.27-.82-1.23-1.36-.92-2.37,4.78,1.89,9.57,3.76,14.47,5.31.12.55.41.86,1,.7l0,0c.16,2.43,1.55,3.95,3.6,5.08a8.13,8.13,0,0,1,2.93,2.18c2.55,3.92,6.54,4.32,10.6,4.72l.09,1.05a41.13,41.13,0,0,0,.75,9.59c.53,3.58-.76,7-1,10.53-.19,2.48-.24,5.81-3.78,6.74-3.34-.21-4.52,2.89-6.67,4.48-.37.27-1.8.47-1.15,1.68l-.63.86c-3.84,1.1-7.66,6.44-8,11.14-1.14-.16-1.77-1.4-3-1.42a10.86,10.86,0,0,0-3.51-2.19c-.09-1.49-1-1.77-2.29-1.58a16.22,16.22,0,0,1-2.66-2.77c0-.84-.56-1.1-1.22-1.2-.28,0-.52.27-.48.58.11.83-.56,1.92.75,2.37.48,2.38,1.14,4.65,3.62,5.78.59,3.25,3.76,4.69,5.21,7.36.46.86.66,2,1.64,2.49,1.83.92,2.3,3,3.78,4.24-1.79.78-2.9,2.35-4.25,3.63-1.47-.37-2.42-1.54-3.6-2.35C468.16,334.69,462.24,330.72,454.91,329.73ZM480,293.61a3.68,3.68,0,0,0-2.83,2.43c-.39,1.09,0,1.69,1.2,1.58,1.73-.13,2.48,1.25,3.48,2.25.21,1.28,1.45.67,2.12,1.13,2.39,1.65,7.61,0,9.43-2.45.49-.47.88-1.12,1.73-.93s1.81-.46,1.57-1.25c-.34-1.16.41-1.85.62-2.76.21-2.07,0-3.88-2.67-4.07-.17,0-.32-.45-.48-.68.91-.3,2.88.5,2.06-1.63a9.06,9.06,0,0,0-3.41-4.17c-1.28-.88-2.41-.23-2.54,1.34a4.55,4.55,0,0,0,2.26,4.41l0,.86c-1.48,1.22-3-.53-4.46,0l-.86,0c-.46-.55-.9-.55-1.33,0l-.78.05c-.43-.16-1.23.14-1.22-.58s.14-1.28-.87-1.26-1.82.76-1.79,1.32c.09,1.62-1.07,2.82-1.13,4.33Z" transform="translate(-230.17 -214.02)"/><path class="cls-3" d="M454.91,329.73c7.33,1,13.25,5,19.15,9,1.18.81,2.13,2,3.6,2.35a2.91,2.91,0,0,0,.93,1.47c5.37,6,10.36,12.38,15.31,18.75,2.6,5,7.16,7.88,11.44,11.1h0c.74,1.32,1.78,1.09,2.71.35,1.12-.9,2.11-1.94,3.16-2.93a1.05,1.05,0,0,0,.82-.94l.43-.49c.83-.79,2-1.27,2.39-2.46l.38-.49c2.35-1.95,3.37-4.86,5.22-7.17a39.22,39.22,0,0,0,4.61-7.19c1.38-2.78,3.79-5.05,4.09-8.35l.46-1a4.82,4.82,0,0,0,1.21-3.34,14.35,14.35,0,0,0,4.64-4.63c3-2.32,6.73-3.31,9.84-5.44l1.58,0c3.36,1.9,4.48,4.75,3.15,7.84-3.29,7.64-5.38,15.51-4.48,23.93.28,2.65.67,5.25,2.37,7.44a3.15,3.15,0,0,0,2,1.92,4,4,0,0,0,3.67,3.31l.79.53a5.74,5.74,0,0,0,2.62,1.89l.88.48c.16.52.31,1.07,1,.44l.43-.13.79.55c.09.46.26.85.84.84.74.62,1.2,1.6,2.27,1.81l1,.83.4.85c0,.85.61.89,1.23.91l.8.61c.7,1.7,1.41,3.41,2.12,5.11a.61.61,0,0,0,.22.87c.06.3.13.61.19.91a1.1,1.1,0,0,0,.26,1.3l.15.92a10.38,10.38,0,0,1-.15,2.17c-1.25,4.15-2.56,8.28-3.85,12.41-1.27.14-.93,1.08-.92,1.85-.83,3.86-3.09,6.95-5.45,9.94a8.44,8.44,0,0,0-1.72,7.2c.75,4.15.84,8.32-.89,12.32-1.19,1.24-2.24,2.65-3.94,3.27-.82,0-1.75-.4-2.14.75l-.66,1.51-1.14-.59.19-1c-1.43-1.57-3-.72-4.63-.37l-6.2,0a1.08,1.08,0,0,0-1.78,0l-1.73-.18c-.31-.81-.75-.92-1.36-.28l-.86-.16c-.18-.63-.6-.74-1.16-.53a4.27,4.27,0,0,1-3.3-1.93c0-1.15-.8-1.37-1.74-1.36a4.8,4.8,0,0,0-2.23-1.77c-.48-.61-.72-.28-.92.23l-.86.19c-.5-.59-.73-.24-.91.27l-.85.18c-1.15-.75-1.93-.08-2.69.69l-.85.2a3.05,3.05,0,0,0-3.12.66l-1.3.25c-.49-.63-.73-.3-.92.23l-.85.21c-.67-.62-1.28-.7-1.8.18l-.88.18c-.55-.53-1-.46-1.33.24l-1.32.2c-.56-.54-1-.45-1.34.25l-1.54.38c-1.63.31-1.79,1.23-1.08,2.54l-.21,1.29c-.76.32-.86.77-.26,1.35a4.39,4.39,0,0,1-2.83,3.72c-.55-.19-1-.08-1.15.53l-1.3.18c-.53-.6-1-.55-1.36.16l-1.74.27c-1.09-.56-2.15-.86-3.12.21a6.43,6.43,0,0,1-3.48,0,1.64,1.64,0,0,0-2.23-.71l-2.19-.64c-.21-.52-.47-.78-.92-.19l-1.29-.27c-.21-.49-.46-.77-.91-.21l-.86-.21c-.35-.74-.79-.83-1.36-.22a26.2,26.2,0,0,1-5.28-1.47,2.33,2.33,0,0,0-2.49-1l-1.07-.1a2.79,2.79,0,0,0-2.45-.81l-.65,0c-2,0-2.75-1.77-3.93-2.91-4.45-4.32-7.05-9.9-9.88-15.24-2.48-4.7-2.65-10.18-3.82-15.31-1.4-6.13-2.24-12.39-3.52-18.55-.35-1.69-.54-3.09.82-4.34.19-.4.39-.79.58-1.18,1.38-.32,2-1.58,3.06-2.37,5.23-4.06,9.56-8.84,11.5-15.39a13.21,13.21,0,0,0,.39-7.52l-.67-3.49a.74.74,0,0,0-.26-.92,5.51,5.51,0,0,0-.15-1.08q-3.25-9.27-6.55-18.53c-.12-.34-.45-.31-.75-.24C450.36,333.89,451.52,331.84,454.91,329.73Zm33.68,28.43h0c-1.47-3-3.89-5.28-5.77-8-2.3-3.28-4.72-6.51-8.39-8.46l-.93-.8a3,3,0,0,0-1.71-1.38c-4.45-3.29-9.66-5.16-14.52-7.69a2.53,2.53,0,0,0-1.93-.15c-2.54,1.49-3,2.74-1.74,4.39a18.11,18.11,0,0,0,.65,2.09c2.15,4.85,3.78,9.9,5.43,14.92,1.06,3.21,2.16,6.51,2.12,9.89-.1,8.37-4.25,14.87-10.33,20.18-2.21,1.93-4.36,3.94-6.63,5.81a1.38,1.38,0,0,0-.52,1.54c2.16,9.23,3.15,18.69,5.46,27.89,1.71,6.82,5.59,12.55,9.18,18.41a12.26,12.26,0,0,0,7.81,5.56c5.62,1.47,11.28,2.78,16.86,4.38,4.93,1.41,9.58.58,14.27-.79.6-.11.78-.56.86-1.08a5.24,5.24,0,0,0,.53-2.3c.75-1.66.3-3.69,1.62-5.17,2.22-.42,4.43-1,6.67-1.22,2-.19,2.38-1.16,2.35-2.89-.1-5.28-.1-10.56-.13-15.84l2-.21c.07,5.3.25,10.6.14,15.9,0,2.05.87,2.27,2.36,1.93a36,36,0,0,0,6.81-1.84c3-1.35,5.07-.19,7,1.9a10.66,10.66,0,0,0,8.43,3.63c4.42,0,8.84,0,13.26-.06,3.72-.06,6-2.28,6.12-6.05a36.29,36.29,0,0,0-.35-7.92c-.68-3.82-.06-7.33,3.2-10a8.31,8.31,0,0,0,1.87-2.44c3-5.2,3.85-11.19,6.3-16.58l.23-.8.09-1.52c1.33-4.46-1.21-10.61-5.23-12.71-3.1-2-6.06-4.22-9.32-5.88a15.65,15.65,0,0,1-8-9.51A35.15,35.15,0,0,1,545,344.1c1-3.15,2.16-6.27,3.15-9.43.34-1.1.62-2.38-.45-3.29a2.86,2.86,0,0,0-3.5-.18c-1.23.69-2.49,1.3-3.73,1.95a18.33,18.33,0,0,0-9.2,10A49.81,49.81,0,0,1,526,353.49c-4.8,7.12-8.94,14.76-16,20-1.69,1.27-2.53,2.5-1.54,4.53l-2,.52a7.51,7.51,0,0,0-2.91-4.94c-1.93-1.42-3.88-2.86-5.69-4.48-3.28-2.92-5.64-6.52-8.1-10.07A1.28,1.28,0,0,0,488.59,358.16Z" transform="translate(-230.17 -214.02)"/><path class="cls-4" d="M480.2,482.44q-.49-3.49-1-7l2.65.43c1.35,2.24,2.53,4.8,5.24,5.55,3,.83,6.1,1.85,9.33,1-.15,4.32,1.38,8.54.8,12.88a1,1,0,0,0-.6,1.56c1.27,1.65.55,3.49.76,5.24.16,1.4-.45,2.89.48,4.2,0,1.68-.18,3.36-.05,5,.07,1.06-.28,1.24-1.19,1.22-2.41-.06-4.82-.06-7.23-.09.21-1-.35-2.21.56-3.15a1,1,0,0,0,.06-1.39,1.23,1.23,0,0,0-1.24-.2c-.66.14-.67.7-.67,1.22,0,1.17,0,2.35,0,3.52H481c-.54-1.73,1.78-3.21.52-5.09-1.73,1.45-1.4,3.3-1.36,5.09l-4.89,0a17.82,17.82,0,0,1,1.44-7.87c1.26-2.84,1.87-6.07,2.84-9.11a28.35,28.35,0,0,0,1.45-11C481,483.72,481.35,482.75,480.2,482.44Z" transform="translate(-230.17 -214.02)"/><path class="cls-5" d="M481.87,475.87l-2.65-.43c-1.05-.32-2.1-.61-3.13-1a3.08,3.08,0,0,1-2.28-2.21c-.46-2.38-1-5,0-7.16a4.77,4.77,0,0,0-1-5.78c-3.66-3.48-6-8-9.38-11.58a3.12,3.12,0,0,1-.82-1.3c-.7-3.16-3-5.25-4.82-7.74-4.75-6.63-8.89-13.46-10.49-21.81-1.72-8.95-2.88-18-5.21-26.87-.42-1.6.58-2.26,1.85-2.72-1.36,1.25-1.17,2.65-.82,4.34,1.28,6.16,2.12,12.42,3.52,18.55,1.17,5.13,1.34,10.61,3.82,15.31,2.83,5.34,5.43,10.92,9.88,15.24,1.18,1.14,1.93,2.87,3.93,2.91-.26.31-.78.3-.27,1.09,2.55,4,4.75,8.28,8.34,11.55a8.49,8.49,0,0,1,3,4.29c.44,2,1.8,2.64,3.64,2.81,4.4.39,8.81.64,13.23.59,4.67-.06,6.25.94,6.71-5.5a21.45,21.45,0,0,0,.3-2.62c-.26-5.58,2.8-8.72,7.53-11,4.17-2,8.61-1.82,13-2.12,5.58-.38,6.41.49,6.44,6.12,0,2.19.92,3,3,3.15,3.74.29,7.46.77,11.2,1.08a4.57,4.57,0,0,0,4.52-2.09c1.87-2.72,2.79-5.8,4-8.8l1.14.59a12.74,12.74,0,0,1-1.66,5.17c-1.51,2.28-1.1,4.38-.21,6.6a.67.67,0,0,0,.22.88l.21,1.78a4.59,4.59,0,0,0,0,2.24c-.07.3-.13.6-.19.9a.81.81,0,0,0-.49.78,5.35,5.35,0,0,1-3,1.13l-.86-.13c-4.48,0-9-.11-13.45,0-1.43,0-2.84-1.05-4.27-.05-1.89-.89-4.07-1.42-3.86-4.33.15-2.15.17-4.25,1.67-6,.74-.87.62-5.92,0-6.81a1.28,1.28,0,0,0-1.15-.51c-5.73.05-11.56-.39-16.81,2.64-3,1.71-5.23,3.95-5.16,7.75a10.85,10.85,0,0,1-.37,3.51c-1,3,.18,5.68,1.17,8.32,1.58,4.22.63,6.85-3.49,8.54-1.47.61-.68,1.9-.95,2.86-.12.42-.18.86-.27,1.29a1.28,1.28,0,0,1-.37-1.21c.44-2.4-.7-3-2.9-2.85C489.74,475.55,485.8,475.68,481.87,475.87Zm10.61-2.54h3.31c3.73,0,4.5-.85,4-4.62-.07-.58-.24-1.15-.3-1.74-.18-1.62-.46-2.79-2.6-1.72a7.94,7.94,0,0,1-3.47.4c-5,0-10-.32-14.95-.78-1-.1-2.5-.46-2.89.87a11.24,11.24,0,0,0,.11,5.87c.35,1.36,2,1.22,3.17,1.56C483.4,474.53,488,473.5,492.48,473.33Zm44.34-13v-.13h7.72c.66,0,1.34,0,1.75-.69s-.09-5.11-.75-5.78c-.43-.44-.78-.23-1.15,0-1.74,1.13-3.69.91-5.58.75-3.81-.31-7.63-.61-11.4-1.21-2.27-.36-2.88.66-3.1,2.54-.34,3,0,3.73,2.37,3.92C530.06,460.06,533.44,460.18,536.82,460.37Z" transform="translate(-230.17 -214.02)"/><path class="cls-3" d="M482.3,265c-4.9-1.55-9.69-3.42-14.47-5.31l-2.27-.54a1.85,1.85,0,0,0-.07-.41c0-.86.06-1.72.08-2.58A1.43,1.43,0,0,0,467,254.7l-.08-.88a2.12,2.12,0,0,0,2.06-.13c1.31-1.12,3-1.35,4.5-1.85l4.61-.42c.89.2,1.82.63,2.57-.33a2.71,2.71,0,0,1,1.77-.21c1.22.42,2.42.71,3.54-.24l.62-.73c.62-.17.7-.6.55-1.14a7.82,7.82,0,0,1,1.41-2.88c.77.05,1-.39,1-1.08l0-.12.11-.05,1.55-.37-1.73,3.4c-.58,0-.9.27-.87.89-.78,1.78.57,1.28,1.37,1.23a140.25,140.25,0,0,1,28.45,1c4,.58,8,.66,11.8,2.4,1.22.56,2-.17,1.63-1.6,1.1-.2.8,1.18,1.55,1.38l1.17,1.21c.35.63.79.71,1.33.22l.88.22a4.59,4.59,0,0,0,3.89.78l1.42.13c1.7,1,3.32,2.11,5.33,2.34a10.65,10.65,0,0,0,1.74,3.1c0,.65.66.81.93,1.25h0a1.21,1.21,0,0,0-1.32,1.33c-.71.64-.64,1.91-1.79,2.19l-3.08,1.27-1.76.85L536.77,269l-5.74.8c-1.18-.2-2.34.56-3.52,0-10.64-.51-21.29-.84-32.43-2.48,1,1,2.26.33,2.29,1.53-1.94,0-3.95.35-5.7-.88-.32-1.37-1.43-.71-2.22-.87l-.46-.07a.89.89,0,0,0-.88-.36,13.45,13.45,0,0,0-4.77-1l0,0C483.24,265.09,482.88,264.89,482.3,265Zm42.79,3c2.06,0,4.14.14,6.19,0,4.47-.38,8.94-.91,13.11-2.76,1.49-.66,2.79-1.61,2.91-3.31s-1.45-2.58-2.77-3.37c-2.5-1.51-5.34-2-8.16-2.59-1.18-.23-1.75-.1-1.23,1.26.63,1.68-.09,2-1.61,1.61-1.92-.52-3.83-1.1-5.78-1.44a194.81,194.81,0,0,0-27.48-2.52c-4.77-.16-9.56-.55-14.33.09-1.19.16-1.28-.53-1-1.32.58-1.47-.15-1.68-1.33-1.52-3.65.46-7.3.88-10.94,1.45a9.22,9.22,0,0,0-4.23,2.27c-1,.84-1.07,1.31.24,1.93a83.4,83.4,0,0,0,16.9,6.21C498.61,266.86,511.84,267.52,525.09,268Zm8.38-10.88c-.34-2-1.76-2.45-3.22-2.79-13.7-3.18-27.59-3.82-41.58-3.14-1,.05-1.68.44-1.68,1.34,0,1.22,1.08.7,1.68.71C503.65,253.41,518.61,253.77,533.47,257.15Z" transform="translate(-230.17 -214.02)"/><path class="cls-6" d="M526.17,462.09c1.43-1,2.84.09,4.27.05,4.48-.1,9,0,13.45,0,0,.28,0,.55,0,.83a126.65,126.65,0,0,1,0,13.64c-.18,3-1.11,3.89-4.08,3.86-1.26,0-2.32.84-3.64.64-.95-.15-1.92,0-2.61-.88a1.12,1.12,0,0,0-1.55-.4c-2,1.18-3.66-.09-5.37-.8a1.5,1.5,0,0,1-1-1.6C526.42,472.34,525.34,467.19,526.17,462.09Z" transform="translate(-230.17 -214.02)"/><path class="cls-2" d="M547.37,257.91c-2-.23-3.63-1.37-5.33-2.34,1.44-2.09,3.83-2,5.89-2.26a40.06,40.06,0,0,1,8.82-.23c3.25.3,6-1,8.88-2,3.24-1.05,5.37.47,5.13,3.9a29.58,29.58,0,0,1-7.11,17.52c-2.63,3.12-4.91,6.59-8.52,8.76a5.5,5.5,0,0,1-1.23.38c-.49.05-1,0-1.21.63l-1.6.37a28.46,28.46,0,0,1-6.32.37c-2-1.29-1.34-2.61,0-3.93l.87,0c1.41,1.28,3,1.11,4.47-.47l.84-.07a.79.79,0,0,0,.92-.86c1.84-1.29,3.59-2.67,4.48-4.84.23-.15.64-.26.69-.45a41.46,41.46,0,0,1,2.34-6.21c1.17-2.06,2.31-4.13,3.52-6.16s.5-3.35-1.44-4.22-4.18-.6-6.28-.72c-.19,0-.38-.05-.6-.07.32-.64,1.45.12,1.49-.92C553,253.5,550.47,254.58,547.37,257.91Z" transform="translate(-230.17 -214.02)"/><path class="cls-2" d="M458.76,357.35c.22,1.16.44,2.32.67,3.49-1,.91-.46,2.08-.49,3.13,0,1.77-.72,2.53-2.46,1.87-2-.76-4.28-.34-6.1-1.69a1,1,0,0,0-1.23.12c-1.94,1.69-2.58.61-2.92-1.31-.06-.37-.06-1-.66-1s-.73.61-.78,1.13c-.36,4-1.28,7.91-.94,12,.15,1.75,0,3.53,0,5.3-.87-.44-.54-1.27-.62-2-.84-7,.74-13.85,1.76-20.73.39-2.61.87-5.21,1-7.84.29-4.36.86-8.55,4.33-11.7a2.38,2.38,0,0,0,.69-1.56c.3-.07.63-.1.75.24q3.29,9.26,6.55,18.53a5.51,5.51,0,0,1,.15,1.08C457.83,357,458.17,357.18,458.76,357.35ZM446,358.91a.58.58,0,0,0-.33.7c0,.27,0,.65.45.56s.38-.4.34-.69S446.44,358.88,446,358.91Z" transform="translate(-230.17 -214.02)"/><path class="cls-7" d="M443.84,380.37c0-1.77.16-3.55,0-5.3-.34-4.05.58-8,.94-12,0-.52.11-1.11.78-1.13s.6.61.66,1c.34,1.92,1,3,2.92,1.31a1,1,0,0,1,1.23-.12c1.82,1.35,4.12.93,6.1,1.69,1.74.66,2.42-.1,2.46-1.87,0-1.05-.49-2.22.49-3.13a13.21,13.21,0,0,1-.39,7.52c-1.94,6.55-6.27,11.33-11.5,15.39-1,.79-1.68,2.05-3.06,2.37C443.52,384.28,443.94,382.3,443.84,380.37Z" transform="translate(-230.17 -214.02)"/><path class="cls-8" d="M560.23,302.51c1.15.1,1.11,1.26,1.58,1.91a38.21,38.21,0,0,1,6.84,15.18c.19,1,1.27,1.71.75,2.86-2,1.2-1.69,3.16-1.67,5,0,1.58-.42,2.73-2.2,2.92a1.93,1.93,0,0,1-1.31-2c0-.66.17-1.5-.88-1.64,0-.12-.05-.25-.08-.37a4.91,4.91,0,0,0-3-4.9l-1.25-1a10,10,0,0,1-2.65-9.2c.34-1.84.32-4.24,3.16-4.47.8-.07.82-.7.81-1.31C560.27,304.55,560.25,303.53,560.23,302.51Z" transform="translate(-230.17 -214.02)"/><path class="cls-9" d="M560.23,302.51c0,1,0,2,0,3.06,0,.61,0,1.24-.81,1.31-2.84.23-2.82,2.63-3.16,4.47a10,10,0,0,0,2.65,9.2l-.43.15a6.43,6.43,0,0,1-3.14-3.66c-1-3.61-3-6.59-5-9.68a5.08,5.08,0,0,0-.89-4c-2.94-3.47-3.5-7.69-3.89-12l2.17.48.43.18c.1.75.67.73,1.22.75,3.89,1.43,6.63,4.28,9.13,7.41C559.19,301,559.69,301.75,560.23,302.51Z" transform="translate(-230.17 -214.02)"/><path class="cls-10" d="M481.87,475.87c3.93-.19,7.87-.32,11.79-.6,2.2-.17,3.34.45,2.9,2.85a1.28,1.28,0,0,0,.37,1.21,5,5,0,0,1-.49,3.08c-3.23.86-6.31-.16-9.33-1C484.4,480.67,483.22,478.11,481.87,475.87Z" transform="translate(-230.17 -214.02)"/><path class="cls-6" d="M491.15,244.27l-1.55.37a15.51,15.51,0,0,1,2.71-5,7,7,0,0,1,6.07-3c8.08.3,16.21.06,24,2.62a14.88,14.88,0,0,0,2.82.5c4.62.56,6.07,2,6.72,6.66-1.08-.65-.32-2.7-2.14-2.78-1.69-2.82-4.61-2.2-7.18-2.55-.33-.14-.66-.3-1-.43-5.78-2.14-11.92-1.55-17.87-2.39C498,237.4,493.57,238.51,491.15,244.27Z" transform="translate(-230.17 -214.02)"/><path class="cls-7" d="M570.84,328.57c.14.59.27,1.18.4,1.78-.52.32-.36.85-.41,1.32a5.12,5.12,0,0,0-.9,3c-.39,3.62-.67,7.27-2.21,10.65-.56.05-.88.33-.83.92s0,1-.48,1.33c-.92-.42-.9-1.23-.9-2.06,0-2.28,0-4.55,0-6.83,0-1,0-1.83-1.32-1.75,0-1.48,0-3,0-4.44l1.26.07c.07.72.43,1.42,1.12,1.41s1-.94,1-1.49c0-2,1.34-3.73,1-5.77-.16-1,.43-1.31,1.31-1.27l.12.75A2,2,0,0,0,570.84,328.57Z" transform="translate(-230.17 -214.02)"/><path class="cls-8" d="M565.6,406c1.29-4.13,2.6-8.26,3.85-12.41a10.38,10.38,0,0,0,.15-2.17c1.3.62.55,1.59.42,2.46-.63,4.16-2.8,7.88-3.43,12-.69,4.52-3.05,8.3-5.47,12a12.94,12.94,0,0,0-2.35,7.83,30.22,30.22,0,0,1-.42,8.33c-.29,1.2-.11,2.72-1.73,3.22,1.73-4,1.64-8.17.89-12.32a8.44,8.44,0,0,1,1.72-7.2c2.36-3,4.62-6.08,5.45-9.94C565.75,407.58,565.56,406.71,565.6,406Z" transform="translate(-230.17 -214.02)"/><path class="cls-8" d="M480.2,482.44c1.15.31.75,1.28.81,2a28.35,28.35,0,0,1-1.45,11c-1,3-1.58,6.27-2.84,9.11a17.82,17.82,0,0,0-1.44,7.87c-1.81-1.15-1.36-2.85-1-4.44,1-4.16,2.74-8.07,4.25-12C480.24,491.51,480.07,487,480.2,482.44Z" transform="translate(-230.17 -214.02)"/><path class="cls-4" d="M570.83,331.67c0-.47-.11-1,.41-1.32a18.76,18.76,0,0,1,.89,7.71,80.78,80.78,0,0,1-3.54,20.18l-.77.91a6.82,6.82,0,0,1,.09-1.51,136.29,136.29,0,0,0,3.15-15.8C571.58,338.32,570.8,335.05,570.83,331.67Z" transform="translate(-230.17 -214.02)"/><path class="cls-8" d="M567.82,359.15l.77-.91c0,3-1.55,5.56-2.5,8.28-1.11,3.18-3.61,5.85-3.34,9.55.08,1,.35,2,.47,3-1.07-.21-1.53-1.19-2.27-1.81a25.9,25.9,0,0,1,1-4c1.55-3.28,3.08-6.58,4.55-9.91A12.65,12.65,0,0,0,567.82,359.15Z" transform="translate(-230.17 -214.02)"/><path class="cls-11" d="M570,325.48c-.88,0-1.47.31-1.31,1.27.33,2-1,3.78-1,5.77,0,.55-.26,1.49-1,1.49s-1-.69-1.12-1.41l0-2.21c1.78-.19,2.21-1.34,2.2-2.92,0-1.85-.29-3.81,1.67-5C569.41,323.5,570.7,324.3,570,325.48Z" transform="translate(-230.17 -214.02)"/><path class="cls-4" d="M544.77,283.05a28.46,28.46,0,0,0,6.32-.37c-.87,1.11-2.13,1.13-3.37,1.19-4.15.18-4.66.91-3.28,4.74.12.34.21.69.32,1l-.18.19-.73-.19c-.47-1.44-1.15-2.83-.92-4.41A2.28,2.28,0,0,1,544.77,283.05Z" transform="translate(-230.17 -214.02)"/><path class="cls-11" d="M497.88,506.29c-.93-1.31-.32-2.8-.48-4.2-.21-1.75.51-3.59-.76-5.24a1,1,0,0,1,.6-1.56C498.53,498.9,498.12,502.6,497.88,506.29Z" transform="translate(-230.17 -214.02)"/><path class="cls-7" d="M488.14,512.45c0-1.17,0-2.35,0-3.52,0-.52,0-1.08.67-1.22a1.23,1.23,0,0,1,1.24.2,1,1,0,0,1-.06,1.39c-.91.94-.35,2.11-.56,3.15Z" transform="translate(-230.17 -214.02)"/><path class="cls-3" d="M529.82,243.59c1.82.08,1.06,2.13,2.14,2.78l.27.9c-.5.54-.43,1,.23,1.32l.24,1.33-1.08,1c-.58-2-.53-4.07-1.5-5.92Z" transform="translate(-230.17 -214.02)"/><path class="cls-7" d="M480.17,512.45c0-1.79-.37-3.64,1.36-5.09,1.26,1.88-1.06,3.36-.52,5.09Z" transform="translate(-230.17 -214.02)"/><path class="cls-4" d="M547.82,291.89l-2.17-.48c-.36-.52-.72-1-1.07-1.57l.18-.19A5.21,5.21,0,0,1,547.82,291.89Z" transform="translate(-230.17 -214.02)"/><path class="cls-6" d="M540.62,255.44a4.59,4.59,0,0,1-3.89-.78A11,11,0,0,1,540.62,255.44Z" transform="translate(-230.17 -214.02)"/><path class="cls-6" d="M485.93,250.64c-1.12,1-2.32.66-3.54.24Z" transform="translate(-230.17 -214.02)"/><path class="cls-6" d="M531.62,251l1.08-1a7.15,7.15,0,0,1,.65,3.09c-.75-.2-.45-1.58-1.55-1.38Z" transform="translate(-230.17 -214.02)"/><path class="cls-11" d="M570.84,328.57a2,2,0,0,1-.76-2.34A1.79,1.79,0,0,1,570.84,328.57Z" transform="translate(-230.17 -214.02)"/><path class="cls-8" d="M548.47,459.47a4.59,4.59,0,0,1,0-2.24C549.39,458,549.39,458.71,548.47,459.47Z" transform="translate(-230.17 -214.02)"/><path class="cls-6" d="M480.62,251.09c-.75,1-1.68.53-2.57.33A4.71,4.71,0,0,1,480.62,251.09Z" transform="translate(-230.17 -214.02)"/><path class="cls-8" d="M550.54,441.29c.39-1.15,1.32-.79,2.14-.75C552.28,441.69,551.27,441.1,550.54,441.29Z" transform="translate(-230.17 -214.02)"/><path class="cls-6" d="M532.46,248.59c-.66-.34-.73-.78-.23-1.32A1.46,1.46,0,0,1,532.46,248.59Z" transform="translate(-230.17 -214.02)"/><path class="cls-6" d="M535.85,254.44c-.54.49-1,.41-1.33-.22A1.68,1.68,0,0,1,535.85,254.44Z" transform="translate(-230.17 -214.02)"/><path class="cls-4" d="M549.47,292.82c-.55,0-1.12,0-1.22-.75C548.93,291.88,549.3,292.18,549.47,292.82Z" transform="translate(-230.17 -214.02)"/><path class="cls-8" d="M569.45,390.46a1.1,1.1,0,0,1-.26-1.3C570,389.44,570.09,389.88,569.45,390.46Z" transform="translate(-230.17 -214.02)"/><path class="cls-6" d="M489.51,244.81c0,.69-.23,1.13-1,1.08C488.4,245.12,489,245,489.51,244.81Z" transform="translate(-230.17 -214.02)"/><path class="cls-4" d="M552.69,282.31c.17-.66.72-.58,1.21-.63C553.73,282.35,553.35,282.6,552.69,282.31Z" transform="translate(-230.17 -214.02)"/><path class="cls-5" d="M565.86,381.66c-.62,0-1.22-.06-1.23-.91l.87,0,.44.52A1.15,1.15,0,0,0,565.86,381.66Z" transform="translate(-230.17 -214.02)"/><path class="cls-8" d="M565.5,380.73l-.87,0-.4-.85C564.84,379.89,565.48,379.85,565.5,380.73Z" transform="translate(-230.17 -214.02)"/><path class="cls-6" d="M487.1,248.77c.15.54.07,1-.55,1.14A1.38,1.38,0,0,1,487.1,248.77Z" transform="translate(-230.17 -214.02)"/><path class="cls-8" d="M565.86,381.66a1.15,1.15,0,0,1,.08-.41c.66,0,.92.36.72,1C566.39,382.07,566.12,381.87,565.86,381.66Z" transform="translate(-230.17 -214.02)"/><path class="cls-8" d="M569,388.25a.61.61,0,0,1-.22-.87C569.41,387.53,569.56,387.8,569,388.25Z" transform="translate(-230.17 -214.02)"/><path class="cls-8" d="M548.23,455.45a.67.67,0,0,1-.22-.88C548.6,454.74,548.78,455,548.23,455.45Z" transform="translate(-230.17 -214.02)"/><path class="cls-8" d="M547.79,461.15a.81.81,0,0,1,.49-.78C548.74,461,548.39,461.16,547.79,461.15Z" transform="translate(-230.17 -214.02)"/><path class="cls-8" d="M543.93,463c0-.28,0-.55,0-.83l.86.13C544.68,462.76,544.36,462.93,543.93,463Z" transform="translate(-230.17 -214.02)"/><path class="cls-8" d="M496.49,305.61c3.54-.93,3.59-4.26,3.78-6.74.28-3.52,1.57-6.95,1-10.53a41.13,41.13,0,0,1-.75-9.59c2.73-.13,5.47-.42,8,1a2.12,2.12,0,0,0,2.11,0c1.49-.84,1.3.32,1.41,1.14l-.09.91a.62.62,0,0,0-.31.86l-.1,1.36c-.45.25-.46.53-.08.85l0,.81c-1.53,1.12-.53,2.69-.72,4.05-.41,3.46.16,6.83.68,10.24a12.63,12.63,0,0,0,2.86,6,98.83,98.83,0,0,0,8.17,8.34,25.38,25.38,0,0,0,4.11,3.6,10,10,0,0,1,4.13,4.85c.43,1,.28,2.36,1.5,3-.11.67.11,1.39-.32,2l-.42.47c-.65-.09-1.1.33-1.59.65-3.52,2.34-3.84,2.22-4.71-1.77a2.55,2.55,0,0,0-.18-.63c-.19-.39-.34-.91-.89-.82s-.58.63-.53,1.06a9.52,9.52,0,0,1-.54,2.8c-1.5,1.23-2.83,2.77-5.16,2.2s-4.52-.7-6.67-1.39c-1.47-.47-3.53-.33-4.25-1.93-.82-1.82-1.89-3.88-.25-5.91a5.61,5.61,0,0,0,3.52-1.83c.63,0,1.13-.16,1.2-.9l.09-.07a1.27,1.27,0,0,0,1.29-1.24l.05-.06c1.4-1.56,1.37-3.68-.23-4.64a11.4,11.4,0,0,0-5.08-1.83,22.94,22.94,0,0,0-7.58.78c-2.87.76-3.83,2.25-2.52,4.85.38,1.69,1.14,3,3.11,3.07,1,.87,2.53.81,3.48,1.83,0,1.33-.05,2.65,0,4a2.66,2.66,0,0,1-1.77,2.78,19.08,19.08,0,0,1-4.85,1.31,24.82,24.82,0,0,1-11.11-1.95c-.19-.72-.24-1.56-1.27-1.61l-.09-.12c.06-.61.09-1.2-.78-1.21l-.22-.88c.48-1.37.17-2.79.63-4.26.87-2.76,3.61-4.64,3.46-7.79l.63-.86c1.71.22,1.87-1.6,2.95-2.28A49.89,49.89,0,0,0,496.49,305.61Z" transform="translate(-230.17 -214.02)"/><path class="cls-8" d="M493.9,361.28c-4.95-6.37-9.94-12.72-15.31-18.75a2.91,2.91,0,0,1-.93-1.47c1.35-1.28,2.46-2.85,4.25-3.63.91-.06,1.3.88,2.07,1.08a33.53,33.53,0,0,0,11.57,12.21c1.09.65,1.22,2.31,2.62,2.73.09.2.08.55.42.48.13,0,.2-.29.3-.45,1.66.06,3.4.33,4.31,1.77,2,3.11,4.06,3.45,6.78.82,1-1,2.1-2,3.22-3,2.38-2.06,5.43-3.42,6.88-6.49a1.57,1.57,0,0,1,1-.78c3.56-.71,3.59-.67,4.94-3.24.35-.65,1-.85,1.44-1.3.61.08.85-.19.76-.78l.13-.1c.74.1.93.75,1.25,1.27l-.46,1a24.52,24.52,0,0,0-3.83,5.89,68.17,68.17,0,0,1-4.25,7.09,4,4,0,0,1-2.69,2.1c-1.7.18-2.16,1.23-2.28,2.67l-.07.07c-.67-.06-.91.22-.69.86l-.16.83c-.42,0-1.06-.07-1.17.37-.85,3.31-3.7,5.28-5.26,8.09a3,3,0,0,1-3.41,1.7h0a12.42,12.42,0,0,0-4.52-5.14C498.29,365.5,496.58,362.83,493.9,361.28Z" transform="translate(-230.17 -214.02)"/><path class="cls-10" d="M467,254.7a1.43,1.43,0,0,1-1.39,1.46c-.29-1.5-1.46-.85-2.31-.93a.72.72,0,0,0-.75.67c-.14.91.61,1.31,1.13,1.76a10.92,10.92,0,0,0,1.85,1.08,1.85,1.85,0,0,1,.07.41,6.15,6.15,0,0,0,.42,1.23c.51.84,2.1,2-.63,1.54a.63.63,0,0,0-.63.91c.67,1.29,1.06,2.47,0,3.78-.24.3.05.87.44,1.15a8.08,8.08,0,0,1,2.64,4.34c.43,1.31.68.3.9-.2.83.19.74.87.85,1.49s.25,1.57,1.27,1.66l1,.49c-.1,1.16-.49,2.09-1.83,2.24l-.08-.07c-.18-2.11-1.32-2.78-3.4-2.65a8,8,0,0,1-5.39-1.5c-.41-.31-.81-.75-1.37-.55-1.28.48-1.35-.3-1.31-1.2.06-1.33-.15-2.42-1.66-3-1.12-.41-1.11-2.41-1-2.57,1.05-2.2-.79-3.34-1.75-4.47a17.2,17.2,0,0,1-4-9.68,35.44,35.44,0,0,0-1.17-4.44c-.12-.48-.26-1.07.15-1.46s.88.15,1.32.28c1.68.48,3.4.84,5.1,1.24-.06.79.3,1.06,1.06,1.36a31.94,31.94,0,0,1,7.85,4C465.13,253.71,465.58,255,467,254.7Z" transform="translate(-230.17 -214.02)"/><path class="cls-4" d="M512.11,280.83c-.12-.82.07-2-1.42-1.14a2.12,2.12,0,0,1-2.11,0c-2.55-1.4-5.29-1.11-8-1l-.09-1.05c-.64-2.17-1.24-4.37-1.93-6.52-.26-.8-.2-1.28.66-1.5l4.77.2c.35,1.05,1.14.75,1.88.61l7,.59a1.83,1.83,0,0,1,.7,2.46c-.87,1.64-.71,3.36-.72,5.09C512.69,279.39,513.4,280.46,512.11,280.83Z" transform="translate(-230.17 -214.02)"/><path class="cls-10" d="M499.2,269.68c-.86.22-.92.7-.66,1.5.69,2.15,1.29,4.35,1.93,6.52-4.06-.4-8.05-.8-10.6-4.72a8.13,8.13,0,0,0-2.93-2.18c-2.05-1.13-3.44-2.65-3.6-5.08a13.45,13.45,0,0,1,4.77,1c.11.56.21,1.16.88.36l.46.07c.44,1.05,1.35.91,2.22.87,1.75,1.23,3.76.85,5.7.88C498,269,499,268.59,499.2,269.68Z" transform="translate(-230.17 -214.02)"/><path class="cls-10" d="M484,338.51c-.77-.2-1.16-1.14-2.07-1.08-1.48-1.22-2-3.32-3.78-4.24-1-.5-1.18-1.63-1.64-2.49-1.45-2.67-4.62-4.11-5.21-7.36a8.38,8.38,0,0,0,0-4.76c1.26-.19,2.2.09,2.29,1.58-.4-.05-.78-.31-1,.41-.58,2.32,1,2.64,2.62,3.24.77.29,1.48,1.26,2.28.61s-.73-1.26-.43-2.07c1.22,0,1.85,1.26,3,1.42.06.25.12.5.17.75-.42,1.32.34,2.41.77,3.55,1.18,3.15.79,6.88,3.61,9.44C485.28,338.12,484.33,338.25,484,338.51Z" transform="translate(-230.17 -214.02)"/><path class="cls-6" d="M487.22,289.66l.86,0a17.07,17.07,0,0,1,6.72,5.12c.9,1.13,1.22,1.72.37,2.8-.85-.19-1.24.46-1.73.93l-.91,0c0-.34-.09-.69-.13-1l0-.67c.36-.14.94-.05.74-.76-.6-2.12-2.81-4.12-5-4.08-1.3,0-2.92-1-4,.71l-.09.08c-2.61.43-2.16,2.33-2,4.1-.37,1.27.75,1.7,1.35,2.42-.35.59-1,.53-1.52.58-1-1-1.75-2.38-3.48-2.25a1.86,1.86,0,0,1,.64-2.74c.43-.32,1.08-.52,1-1.27l.06-.06,5-3.81.78-.05A.8.8,0,0,0,487.22,289.66Z" transform="translate(-230.17 -214.02)"/><path class="cls-12" d="M480.23,324.52c-.05-.25-.11-.5-.17-.75.32-4.7,4.14-10,8-11.14.15,3.15-2.59,5-3.46,7.79-.46,1.47-.15,2.89-.62,4.26-1.4-.58,0-2.37-1.35-3.13-.25,1.08-.48,2-.71,3Z" transform="translate(-230.17 -214.02)"/><path class="cls-13" d="M468.72,271.9c-.22.5-.47,1.51-.9.2a8.08,8.08,0,0,0-2.64-4.34c-.39-.28-.68-.85-.44-1.15,1-1.31.65-2.49,0-3.78a.63.63,0,0,1,.63-.91c2.73.46,1.14-.7.63-1.54a6.15,6.15,0,0,1-.42-1.23l2.27.54c-.31,1,.65,1.55.92,2.37.46,1.45.93,2.57.17,4.28S468.74,270,468.72,271.9Z" transform="translate(-230.17 -214.02)"/><path class="cls-11" d="M492.58,288.81a4.55,4.55,0,0,1-2.26-4.41c.13-1.57,1.26-2.22,2.54-1.34a9.06,9.06,0,0,1,3.41,4.17c.82,2.13-1.15,1.33-2.06,1.63Z" transform="translate(-230.17 -214.02)"/><path class="cls-7" d="M495.17,297.62c.85-1.08.53-1.67-.37-2.8a17.07,17.07,0,0,0-6.72-5.12c1.48-.56,3,1.19,4.46,0,.5,0,.66.39.93.77,1,1.39,2,2.82,3.89,3.17-.21.91-1,1.6-.62,2.76C497,297.16,496.16,297.76,495.17,297.62Z" transform="translate(-230.17 -214.02)"/><path class="cls-13" d="M471.27,318.58a8.38,8.38,0,0,1,0,4.76c-2.48-1.13-3.14-3.4-3.62-5.78.23-.63-.26-1.65.95-1.75A16.22,16.22,0,0,0,471.27,318.58Z" transform="translate(-230.17 -214.02)"/><path class="cls-13" d="M467,254.7c-1.38.28-1.83-1-2.67-1.61a31.94,31.94,0,0,0-7.85-4c-.76-.3-1.12-.57-1.06-1.36,4.28,1.19,8.51,2.47,11.5,6.09Z" transform="translate(-230.17 -214.02)"/><path class="cls-10" d="M492.53,298.53l.91,0c-1.82,2.48-7,4.1-9.43,2.45-.67-.46-1.91.15-2.12-1.13.56-.05,1.17,0,1.52-.58,2.57.86,5.12,1,7.58-.37C491.54,298.94,492.13,299.11,492.53,298.53Z" transform="translate(-230.17 -214.02)"/><path class="cls-13" d="M477.07,322.35c-.3.81,1.27,1.4.43,2.07s-1.51-.32-2.28-.61c-1.6-.6-3.2-.92-2.62-3.24.18-.72.56-.46,1-.41A10.86,10.86,0,0,1,477.07,322.35Z" transform="translate(-230.17 -214.02)"/><path class="cls-7" d="M471.85,275.54l-1-.49c1.38-2.37,2.63-4.83,4.86-6.58.37-.3.71-.59,1.11-.18a.79.79,0,0,1,0,1.18C474.42,270.9,473.63,273.62,471.85,275.54Z" transform="translate(-230.17 -214.02)"/><path class="cls-7" d="M485.11,289.74l-5,3.81c.06-1.51,1.22-2.71,1.13-4.33,0-.56.83-1.3,1.79-1.32s.89.52.87,1.26S484.68,289.58,485.11,289.74Z" transform="translate(-230.17 -214.02)"/><path class="cls-10" d="M497.36,293.61c-1.87-.35-2.89-1.78-3.89-3.17-.27-.38-.43-.73-.93-.77,0-.29,0-.57,0-.86l1.63.05c.16.23.31.66.48.68C497.4,289.73,497.57,291.54,497.36,293.61Z" transform="translate(-230.17 -214.02)"/><path class="cls-12" d="M496.49,305.61a49.89,49.89,0,0,1-4.87,3.88c-1.08.68-1.24,2.5-2.95,2.28-.65-1.21.78-1.41,1.15-1.68C492,308.5,493.15,305.4,496.49,305.61Z" transform="translate(-230.17 -214.02)"/><path class="cls-7" d="M480,293.61c.09.75-.56.95-1,1.27a1.86,1.86,0,0,0-.64,2.74c-1.24.11-1.59-.49-1.2-1.58A3.68,3.68,0,0,1,480,293.61Z" transform="translate(-230.17 -214.02)"/><path class="cls-7" d="M468.61,315.81c-1.21.1-.72,1.12-.95,1.75-1.31-.45-.64-1.54-.75-2.37,0-.31.2-.62.48-.58C468.05,314.71,468.65,315,468.61,315.81Z" transform="translate(-230.17 -214.02)"/><path class="cls-7" d="M487.22,289.66a.8.8,0,0,1-1.33,0C486.32,289.11,486.76,289.11,487.22,289.66Z" transform="translate(-230.17 -214.02)"/><path class="cls-10" d="M482.3,265c.58-.11.94.09,1,.7C482.71,265.86,482.42,265.55,482.3,265Z" transform="translate(-230.17 -214.02)"/><path class="cls-10" d="M470,277.78l-.25,1c-.06,0-.15-.07-.17-.12a.75.75,0,0,1,.34-.92Z" transform="translate(-230.17 -214.02)"/><path class="cls-14" d="M489.83,359.09c2.46,3.55,4.82,7.15,8.1,10.07,1.81,1.62,3.76,3.06,5.69,4.48a7.51,7.51,0,0,1,2.91,4.94c-3.14,3.21-2.77,5.7,1.17,7.92l.54,7.9c-.27.12-.53.24-.81.34a4,4,0,0,0-2.91,4.32c.15,2.11,1.64,3.34,4.54,3.88q.18,3,.34,6.09c-2.08.75-3.69,1.94-3.56,4.41s1.8,3.54,4,4.06c0,5.28,0,10.56.13,15.84,0,1.73-.37,2.7-2.35,2.89-2.24.21-4.45.8-6.67,1.22-1-.15-2.1,0-2.37,1.09-.36,1.4-.58,2.92.75,4.08a5.24,5.24,0,0,1-.53,2.3c-.73,0-.9.47-.86,1.08-4.69,1.37-9.34,2.2-14.27.79-5.58-1.6-11.24-2.91-16.86-4.38a12.26,12.26,0,0,1-7.81-5.56c-3.59-5.86-7.47-11.59-9.18-18.41-2.31-9.2-3.3-18.66-5.46-27.89a1.38,1.38,0,0,1,.52-1.54c2.27-1.87,4.42-3.88,6.63-5.81,6.08-5.31,10.23-11.81,10.33-20.18,0-3.38-1.06-6.68-2.12-9.89-1.65-5-3.28-10.07-5.43-14.92a18.11,18.11,0,0,1-.65-2.09c.24-1.6,1.56-2.77,1.74-4.39a2.53,2.53,0,0,1,1.93.15c4.86,2.53,10.07,4.4,14.52,7.69,0,1.14.77,1.37,1.71,1.38l.93.8a6.71,6.71,0,0,0,2,3.82c4.11,3.34,7.2,7.6,10.72,11.48.44.49.7,1.12,1.48,1.12h0C488.59,359,489.22,359,489.83,359.09Z" transform="translate(-230.17 -214.02)"/><path class="cls-14" d="M566.91,395.8c-2.45,5.39-3.33,11.38-6.3,16.58a8.31,8.31,0,0,1-1.87,2.44c-3.26,2.63-3.88,6.14-3.2,10a36.29,36.29,0,0,1,.35,7.92c-.14,3.77-2.4,6-6.12,6.05-4.42.07-8.84,0-13.26.06a10.66,10.66,0,0,1-8.43-3.63c-1.88-2.09-3.93-3.25-7-1.9a36,36,0,0,1-6.81,1.84c-1.49.34-2.4.12-2.36-1.93.11-5.3-.07-10.6-.14-15.9.59-.43,1.2-.84,1.76-1.31,2.09-1.77,2.1-3.7,0-5.44-.67-.55-1.43-1-2.15-1.49l-.39-6.61q4.94-4.21-.58-7.85l-.72-8.07c2.75-1.18,3.86-2.7,3.53-4.84s-2-3.38-4.79-3.62c-1-2-.15-3.26,1.54-4.53,7.06-5.28,11.2-12.92,16-20a49.81,49.81,0,0,0,5.22-10.39,18.33,18.33,0,0,1,9.2-10c1.24-.65,2.5-1.26,3.73-1.95a2.86,2.86,0,0,1,3.5.18c1.07.91.79,2.19.45,3.29-1,3.16-2.13,6.28-3.15,9.43a35.15,35.15,0,0,0-.32,21.28,15.65,15.65,0,0,0,8,9.51c3.26,1.66,6.22,3.9,9.32,5.88,1.72,4.25,5.08,7.82,5.23,12.71l-.09,1.52C567.07,395.26,567,395.53,566.91,395.8Z" transform="translate(-230.17 -214.02)"/><path class="cls-15" d="M548.74,442.21c-1.16,3-2.08,6.08-4,8.8a4.57,4.57,0,0,1-4.52,2.09c-3.74-.31-7.46-.79-11.2-1.08-2.06-.16-3-1-3-3.15,0-5.63-.86-6.5-6.44-6.12-4.36.3-8.8.11-13,2.12-4.73,2.27-7.79,5.41-7.53,11a21.45,21.45,0,0,1-.3,2.62c-.46,6.44-2,5.44-6.71,5.5-4.42,0-8.83-.2-13.23-.59-1.84-.17-3.2-.77-3.64-2.81a8.49,8.49,0,0,0-3-4.29c-3.59-3.27-5.79-7.53-8.34-11.55-.51-.79,0-.78.27-1.09l.65,0a2.32,2.32,0,0,0,2.45.81l1.07.1a3.22,3.22,0,0,0,2.49,1,26.2,26.2,0,0,0,5.28,1.47,1.12,1.12,0,0,0,1.36.22l.86.21a.64.64,0,0,0,.91.21l1.29.27a.66.66,0,0,0,.92.19l2.19.64a2.7,2.7,0,0,0,2.23.71,6.43,6.43,0,0,0,3.48,0,4.07,4.07,0,0,0,3.12-.21l1.74-.27a1,1,0,0,0,1.36-.16l1.3-.18c.55.2.87-.12,1.15-.53a4.39,4.39,0,0,0,2.83-3.72,1.09,1.09,0,0,0,.26-1.35l.21-1.29c1.33-.44.61-1.74,1.08-2.54l1.54-.38a1,1,0,0,0,1.34-.25l1.32-.2a1,1,0,0,0,1.33-.24l.88-.18a1.7,1.7,0,0,0,1.8-.18l.85-.21a.73.73,0,0,0,.92-.23l1.3-.25a3.54,3.54,0,0,0,3.12-.66l.85-.2a4.62,4.62,0,0,0,2.69-.69l.85-.18a.71.71,0,0,0,.91-.27l.86-.19a.73.73,0,0,0,.92-.23,4.8,4.8,0,0,1,2.23,1.77c.1,1.07.91,1.22,1.74,1.36a4.27,4.27,0,0,0,3.3,1.93,1,1,0,0,0,1.16.53l.86.16a1.25,1.25,0,0,0,1.36.28l1.73.18a1.34,1.34,0,0,0,1.78,0l6.2,0c1.49.72,3.09.16,4.63.37Z" transform="translate(-230.17 -214.02)"/><path class="cls-7" d="M550.43,307.36c1.92,3.09,4,6.07,5,9.68a6.43,6.43,0,0,0,3.14,3.66c0,1.16,0,2.32,0,3.48v1.33l-1.35,5.74c0,.43,0,.86,0,1.3-1.37.34-.71,1.43-.83,2.24a9.12,9.12,0,0,1-.08,2c-.33,1.29-.48,3.32-1.48,3.56-2.6.61-1.19,1.61-.46,2.39a3.69,3.69,0,0,1,1.1,2.94c-.08,1.24,0,2.48,0,3.72-.77.09-.9.64-.86,1.27.29,4.4-2.74,7.39-5.19,10.2a4.41,4.41,0,0,0-1,4.93c.19.63,1,1.37-.36,1.67-1.7-2.19-2.09-4.79-2.37-7.44-.9-8.42,1.19-16.29,4.48-23.93,1.33-3.09.21-5.94-3.15-7.84a9.63,9.63,0,0,1,.87-8.94c.7-1.07,1.26-2.23,1.92-3.34,1.12-1.87,1.86-3.73.63-5.9A2.34,2.34,0,0,1,550.43,307.36Zm2.12,31.95c0-.13-.06-.3-.15-.35s-.23,0-.35.07l.18.45Z" transform="translate(-230.17 -214.02)"/><path class="cls-13" d="M557.11,332.55c0-.44,0-.87,0-1.3,1.64-.95,2.16-3.17,1.35-5.74v-1.33c1.23,0,.1-2.07,1.62-1.76,1.52,1,1.68,3,3.13,4,0,.12.06.25.08.37-.54,2,.75,3.81.9,5.74,0,1.48,0,3,0,4.44,0,3.59,0,7.18,0,10.77,0,.81-.52,2.12.53,2.32s1.14-1.26,1.6-2a1.21,1.21,0,0,0,.07-.43c.49-.32.43-.85.48-1.33a.79.79,0,0,0,.83-.92c1.54-3.38,1.82-7,2.21-10.65a5.12,5.12,0,0,1,.9-3c0,3.38.75,6.65.23,10.17a136.29,136.29,0,0,1-3.15,15.8,6.82,6.82,0,0,0-.09,1.51,12.65,12.65,0,0,1-1.29,4.17c-1.47,3.33-3,6.63-4.55,9.91a25.9,25.9,0,0,0-1,4c-.58,0-.75-.38-.84-.84,0-.93.56-1.77.19-2.8-1.29-3.49-.9-7.17-1-10.79a15.26,15.26,0,0,0-1.47-5.7c-.29-.66-.63-.44-.73.19l-.87-.88c-.15-.3-.29-.6-.44-.89.51,0,1,0,1.29-.59,2.14-4,3-8.45,3.88-12.8.62-3,.6-6.22,1.32-9.31a6.68,6.68,0,0,0-1.11-6.07c.59,2.5-1.3,4.56-1,7,.57,4.77-.68,9.34-1.79,13.91-.69,2.82-1.36,3.3-3,2.55l0-.91c0-1.24-.06-2.48,0-3.72a3.69,3.69,0,0,0-1.1-2.94c-.73-.78-2.14-1.78.46-2.39,1-.24,1.15-2.27,1.48-3.56a9.12,9.12,0,0,0,.08-2C557.64,334.44,557,333.34,557.11,332.55Z" transform="translate(-230.17 -214.02)"/><path class="cls-7" d="M555.81,355.55c.15.29.29.59.44.89,0,.7-.27,1.58.83,1.79.16,1.32.71,2.59.47,4-.79.27-1.24-.68-2.07-.59-.17,1.17-.49,2.44.16,3.41.75,1.12.23,1.91.07,3-.28,1.83-2.07,2.83-2.09,4.66a4,4,0,0,1-3.67-3.31c.35-1.32-.68-3.22,1.8-3.54-.67-.71-1.81-.47-1.73-1.68s.7-.74,1.32-.85.48-.8.33-1.26-.5-1.2,0-1.65c1.64-1.53,2-4,4.08-5.23C555.77,355.28,555.79,355.41,555.81,355.55Z" transform="translate(-230.17 -214.02)"/><path class="cls-10" d="M550.43,307.36a2.34,2.34,0,0,0-.13,2.68c1.23,2.17.49,4-.63,5.9-.66,1.11-1.22,2.27-1.92,3.34a9.63,9.63,0,0,0-.87,8.94l-1.58,0c-.22-1.11,0-2.59-.47-3.27-.89-1.38-2,.78-3.21.47.2-2.68-1.83-1.43-3-1.71.23-1.42,1.51-1.05,2.08-.82,2.47.94,3.45-.94,4.85-2.19.8-.7.6-1.71,1.1-2.54,3.23-5.36,2.86-10.85.37-16.44-1.7-3.84-3.12-7.81-3.17-12.1l.73.19c.35.53.71,1.05,1.07,1.57.39,4.28,1,8.5,3.89,12A5.08,5.08,0,0,1,550.43,307.36Z" transform="translate(-230.17 -214.02)"/><path class="cls-12" d="M511.44,409.05c.72.5,1.48.94,2.15,1.49,2.09,1.74,2.08,3.67,0,5.44-.56.47-1.17.88-1.76,1.31l-2,.21c-2.17-.52-3.84-1.6-4-4.06s1.48-3.66,3.56-4.41Z" transform="translate(-230.17 -214.02)"/><path class="cls-12" d="M508.49,378.06c2.78.24,4.46,1.51,4.79,3.62s-.78,3.66-3.53,4.84l-2.05,0c-3.94-2.22-4.31-4.71-1.17-7.92Z" transform="translate(-230.17 -214.02)"/><path class="cls-10" d="M535.46,333.69a14.35,14.35,0,0,1-4.64,4.63l-.57-.1c-1.11-2.71.63-5.14.79-7.73,0-.06.26-.09.4-.14a4.56,4.56,0,0,0,4-1.75l3,0C537.81,330.47,535.77,331.57,535.46,333.69Z" transform="translate(-230.17 -214.02)"/><path class="cls-10" d="M555.74,355.14c-2.06,1.19-2.44,3.7-4.08,5.23-.49.45-.18,1.08,0,1.65s.37,1.14-.33,1.26-1.25-.23-1.32.85,1.06,1,1.73,1.68c-2.48.32-1.45,2.22-1.8,3.54a3.15,3.15,0,0,1-2-1.92c1.33-.3.55-1,.36-1.67a4.41,4.41,0,0,1,1-4.93c2.45-2.81,5.48-5.8,5.19-10.2,0-.63.09-1.18.86-1.27l0,.91C555,351.94,555.92,353.5,555.74,355.14Z" transform="translate(-230.17 -214.02)"/><path class="cls-7" d="M535.46,333.69c.31-2.12,2.35-3.22,3.07-5.11,1.59-.49,1.5-2.64,3.09-3.13,1.19.31,2.32-1.85,3.21-.47.45.68.25,2.16.47,3.27C542.19,330.38,538.45,331.37,535.46,333.69Z" transform="translate(-230.17 -214.02)"/><path class="cls-7" d="M488.6,358.17c-.78,0-1-.63-1.48-1.12-3.52-3.88-6.61-8.14-10.72-11.48a6.71,6.71,0,0,1-2-3.82c3.67,1.95,6.09,5.18,8.39,8.46C484.71,352.89,487.13,355.19,488.6,358.17Z" transform="translate(-230.17 -214.02)"/><path class="cls-6" d="M557.55,362.19c.24-1.37-.31-2.64-.47-4,0-.3,0-.61,0-.91.1-.63.44-.85.73-.19a15.26,15.26,0,0,1,1.47,5.7c.08,3.62-.31,7.3,1,10.79.37,1-.16,1.87-.19,2.8l-.79-.55c0-.87,0-1.74,0-2.6-.7-1.33-.85-2.94-2.08-4l.21-1.68c.91-.07,1.11-.65,1-1.44,0-.59,0-1.18,0-1.77-.13-.79.5-1.86-.8-2.24Z" transform="translate(-230.17 -214.02)"/><path class="cls-11" d="M516.1,360.46c.12-1.44.58-2.49,2.28-2.67a4,4,0,0,0,2.69-2.1,68.17,68.17,0,0,0,4.25-7.09,24.52,24.52,0,0,1,3.83-5.89c-.3,3.3-2.71,5.57-4.09,8.35a39.22,39.22,0,0,1-4.61,7.19A18.19,18.19,0,0,0,516.1,360.46Z" transform="translate(-230.17 -214.02)"/><path class="cls-11" d="M505.34,372.38a3,3,0,0,0,3.41-1.7c1.56-2.81,4.41-4.78,5.26-8.09.11-.44.75-.32,1.17-.37,1.54,1-.1,2.14.05,3.2l-.38.49c-1.62,0-2.29,1-2.39,2.46l-.43.49c-.64,0-.9.33-.82.94-1,1-2,2-3.16,2.93C507.12,373.47,506.08,373.7,505.34,372.38Z" transform="translate(-230.17 -214.02)"/><path class="cls-11" d="M493.9,361.28c2.68,1.55,4.39,4.22,6.92,6a12.42,12.42,0,0,1,4.52,5.14C501.06,369.16,496.5,366.23,493.9,361.28Z" transform="translate(-230.17 -214.02)"/><path class="cls-7" d="M567.23,393.48c-.15-4.89-3.51-8.46-5.23-12.71C566,382.87,568.56,389,567.23,393.48Z" transform="translate(-230.17 -214.02)"/><path class="cls-2" d="M557.43,367.6l-.21,1.68-2.81,3.91-.79-.53c0-1.83,1.81-2.83,2.09-4.66.16-1.08.68-1.87-.07-3-.65-1-.33-2.24-.16-3.41.83-.09,1.28.86,2.07.59l.09,0-.45,2.18v1.9Z" transform="translate(-230.17 -214.02)"/><path class="cls-10" d="M554.41,373.19l2.81-3.91c1.23,1.05,1.38,2.66,2.08,4-1.44-.25-2.08.5-2.27,1.81A5.74,5.74,0,0,1,554.41,373.19Z" transform="translate(-230.17 -214.02)"/><path class="cls-7" d="M515.23,365.42c-.15-1.06,1.49-2.16-.05-3.2.06-.28.11-.55.16-.83a.87.87,0,0,0,.69-.86l.07-.07a18.19,18.19,0,0,1,4.35-2.21C518.6,360.56,517.58,363.47,515.23,365.42Z" transform="translate(-230.17 -214.02)"/><path class="cls-7" d="M499.3,442.62c-1.33-1.16-1.11-2.68-.75-4.08.27-1.08,1.34-1.24,2.37-1.09C499.6,438.93,500.05,441,499.3,442.62Z" transform="translate(-230.17 -214.02)"/><path class="cls-7" d="M455.35,331.73c-.18,1.62-1.5,2.79-1.74,4.39C452.31,334.47,452.81,333.22,455.35,331.73Z" transform="translate(-230.17 -214.02)"/><path class="cls-9" d="M557,375.08c.19-1.31.83-2.06,2.27-1.81,0,.86,0,1.73,0,2.6l-.43.13a.74.74,0,0,0-1-.44Z" transform="translate(-230.17 -214.02)"/><path class="cls-11" d="M530.25,338.22l.57.1a4.82,4.82,0,0,1-1.21,3.34c-.32-.52-.51-1.17-1.25-1.26A3.53,3.53,0,0,1,530.25,338.22Z" transform="translate(-230.17 -214.02)"/><path class="cls-5" d="M548.93,441.23c-1.54-.21-3.14.35-4.63-.37C545.88,440.51,547.5,439.66,548.93,441.23Z" transform="translate(-230.17 -214.02)"/><path class="cls-5" d="M502.46,439.23c-.47.8.25,2.1-1.08,2.54C500.67,440.46,500.83,439.54,502.46,439.23Z" transform="translate(-230.17 -214.02)"/><path class="cls-7" d="M512.46,368.37c.1-1.5.77-2.44,2.39-2.46C514.44,367.1,513.29,367.58,512.46,368.37Z" transform="translate(-230.17 -214.02)"/><path class="cls-5" d="M492.53,449.27a4.07,4.07,0,0,1-3.12.21C490.38,448.41,491.44,448.71,492.53,449.27Z" transform="translate(-230.17 -214.02)"/><path class="cls-5" d="M516.86,436.45a3.54,3.54,0,0,1-3.12.66A3.05,3.05,0,0,1,516.86,436.45Z" transform="translate(-230.17 -214.02)"/><path class="cls-5" d="M520.4,435.56a4.62,4.62,0,0,1-2.69.69C518.47,435.48,519.25,434.81,520.4,435.56Z" transform="translate(-230.17 -214.02)"/><path class="cls-5" d="M527.91,437.82c-.83-.14-1.64-.29-1.74-1.36C527.11,436.45,527.86,436.67,527.91,437.82Z" transform="translate(-230.17 -214.02)"/><path class="cls-5" d="M470.89,445.58a3.22,3.22,0,0,1-2.49-1A2.33,2.33,0,0,1,470.89,445.58Z" transform="translate(-230.17 -214.02)"/><path class="cls-5" d="M485.93,449.5a2.7,2.7,0,0,1-2.23-.71A1.64,1.64,0,0,1,485.93,449.5Z" transform="translate(-230.17 -214.02)"/><path class="cls-5" d="M467.33,444.5a2.32,2.32,0,0,1-2.45-.81A2.79,2.79,0,0,1,467.33,444.5Z" transform="translate(-230.17 -214.02)"/><path class="cls-5" d="M565.6,406c0,.75.15,1.62-.92,1.85C564.67,407,564.33,406.1,565.6,406Z" transform="translate(-230.17 -214.02)"/><path class="cls-5" d="M510.67,437.8a1.7,1.7,0,0,1-1.8.18C509.39,437.1,510,437.18,510.67,437.8Z" transform="translate(-230.17 -214.02)"/><path class="cls-7" d="M473.51,341c-.94,0-1.69-.24-1.71-1.38A3,3,0,0,1,473.51,341Z" transform="translate(-230.17 -214.02)"/><path class="cls-5" d="M538.1,440.89a1.34,1.34,0,0,1-1.78,0A1.08,1.08,0,0,1,538.1,440.89Z" transform="translate(-230.17 -214.02)"/><path class="cls-5" d="M495.63,448.84a1,1,0,0,1-1.36.16C494.65,448.29,495.1,448.24,495.63,448.84Z" transform="translate(-230.17 -214.02)"/><path class="cls-5" d="M477.53,447.27a1.12,1.12,0,0,1-1.36-.22C476.74,446.44,477.18,446.53,477.53,447.27Z" transform="translate(-230.17 -214.02)"/><path class="cls-5" d="M501.17,443.06a1.09,1.09,0,0,1-.26,1.35C500.31,443.83,500.41,443.38,501.17,443.06Z" transform="translate(-230.17 -214.02)"/><path class="cls-5" d="M534.59,440.72a1.25,1.25,0,0,1-1.36-.28C533.84,439.8,534.28,439.91,534.59,440.72Z" transform="translate(-230.17 -214.02)"/><path class="cls-5" d="M508,438.16a1,1,0,0,1-1.33.24C507,437.7,507.44,437.63,508,438.16Z" transform="translate(-230.17 -214.02)"/><path class="cls-5" d="M505.34,438.6a1,1,0,0,1-1.34.25C504.33,438.15,504.78,438.06,505.34,438.6Z" transform="translate(-230.17 -214.02)"/><path class="cls-7" d="M489.83,359.09c-.61,0-1.24-.07-1.24-.93A1.28,1.28,0,0,1,489.83,359.09Z" transform="translate(-230.17 -214.02)"/><path class="cls-7" d="M497.91,446c0-.61.13-1.07.86-1.08C498.69,445.44,498.51,445.89,497.91,446Z" transform="translate(-230.17 -214.02)"/><path class="cls-7" d="M511.21,369.8c-.08-.61.18-.94.82-.94A1.05,1.05,0,0,1,511.21,369.8Z" transform="translate(-230.17 -214.02)"/><path class="cls-7" d="M458.76,357.35c-.59-.17-.93-.4-.26-.92A.74.74,0,0,1,458.76,357.35Z" transform="translate(-230.17 -214.02)"/><path class="cls-5" d="M512.44,437.36a.73.73,0,0,1-.92.23C511.71,437.06,512,436.73,512.44,437.36Z" transform="translate(-230.17 -214.02)"/><path class="cls-5" d="M532.37,440.28a1,1,0,0,1-1.16-.53C531.77,439.54,532.19,439.65,532.37,440.28Z" transform="translate(-230.17 -214.02)"/><path class="cls-10" d="M557.91,375.56a.74.74,0,0,1,1,.44C558.22,376.63,558.07,376.08,557.91,375.56Z" transform="translate(-230.17 -214.02)"/><path class="cls-5" d="M522.16,435.11a.71.71,0,0,1-.91.27C521.43,434.87,521.66,434.52,522.16,435.11Z" transform="translate(-230.17 -214.02)"/><path class="cls-5" d="M479.3,447.69a.64.64,0,0,1-.91-.21C478.84,446.92,479.09,447.2,479.3,447.69Z" transform="translate(-230.17 -214.02)"/><path class="cls-5" d="M481.51,448.15a.66.66,0,0,1-.92-.19C481,447.37,481.3,447.63,481.51,448.15Z" transform="translate(-230.17 -214.02)"/><path class="cls-5" d="M498.08,448.13c-.28.41-.6.73-1.15.53C497.11,448.05,497.53,447.94,498.08,448.13Z" transform="translate(-230.17 -214.02)"/><path class="cls-5" d="M523.94,434.69a.73.73,0,0,1-.92.23C523.22,434.41,523.46,434.08,523.94,434.69Z" transform="translate(-230.17 -214.02)"/><path class="cls-7" d="M566.91,395.8c.08-.27.16-.54.23-.8Z" transform="translate(-230.17 -214.02)"/><path class="cls-16" d="M492.48,473.33c-4.53.17-9.08,1.2-13.59-.16-1.14-.34-2.82-.2-3.17-1.56a11.24,11.24,0,0,1-.11-5.87c.39-1.33,1.86-1,2.89-.87,5,.46,10,.75,14.95.78a7.94,7.94,0,0,0,3.47-.4c2.14-1.07,2.42.1,2.6,1.72.06.59.23,1.16.3,1.74.47,3.77-.3,4.65-4,4.62Z" transform="translate(-230.17 -214.02)"/><path class="cls-16" d="M536.82,460.37c-3.38-.19-6.76-.31-10.13-.59-2.34-.19-2.71-.94-2.37-3.92.22-1.88.83-2.9,3.1-2.54,3.77.6,7.59.9,11.4,1.21,1.89.16,3.84.38,5.58-.75.37-.24.72-.45,1.15,0,.66.67,1.24,5,.75,5.78s-1.09.69-1.75.69h-7.72Z" transform="translate(-230.17 -214.02)"/><path class="cls-12" d="M525.09,268c-13.25-.51-26.48-1.17-39.48-4a83.4,83.4,0,0,1-16.9-6.21c-1.31-.62-1.28-1.09-.24-1.93a9.22,9.22,0,0,1,4.23-2.27c3.64-.57,7.29-1,10.94-1.45,1.18-.16,1.91.05,1.33,1.52-.31.79-.22,1.48,1,1.32,4.77-.64,9.56-.25,14.33-.09a194.81,194.81,0,0,1,27.48,2.52c2,.34,3.86.92,5.78,1.44,1.52.41,2.24.07,1.61-1.61-.52-1.36.05-1.49,1.23-1.26,2.82.57,5.66,1.08,8.16,2.59,1.32.79,2.91,1.53,2.77,3.37s-1.42,2.65-2.91,3.31c-4.17,1.85-8.64,2.38-13.11,2.76C529.23,268.17,527.15,268,525.09,268Zm14.74-7v.73c-.31.48-1.55.37-1,1.27.29.49,1.08.16,1.6-.15a4.9,4.9,0,0,0,2.42-3.49c.07-.4.06-1-.55-1-.42,0-.48.48-.61.81l-.73-.11c-.09-.43-.41-1.13-.72-.7-.63.88-2.06,1.3-2,2.38S539.25,261.05,539.83,261Zm-65.47-2.8c.79-1.7,1.31-3,2.94-3.14.35,0,.74-.25.57-.73s-.55-.41-.92-.42C475.09,253.84,473.84,255.54,474.36,258.21Zm3.53-1.52c0-.54-.33-.7-.68-.57-.61.21-1.51.18-1.39,1.24.05.46.22.91.75.84C477.42,258.08,477.53,257.24,477.89,256.69Z" transform="translate(-230.17 -214.02)"/><path class="cls-9" d="M543.85,289.65c0,4.29,1.47,8.26,3.17,12.1,2.49,5.59,2.86,11.08-.37,16.44-.5.83-.3,1.84-1.1,2.54-1.4,1.25-2.38,3.13-4.85,2.19-.57-.23-1.85-.6-2.08.82a6.83,6.83,0,0,1-1.85,2.25c-.81-.29-1.72-1.18-2.21.38-.58.05-.92.31-.81.94,0,.13,0,.26-.07.4a1.17,1.17,0,0,0-1.28.92v0a.86.86,0,0,1-.49-.95c.43-.62.21-1.34.32-2a5.74,5.74,0,0,0,.35-6c-.44-.86-1-1.87.15-2.76.44-.36.64-1-.22-1.08-2.74-.35-2.74-2.63-3.23-4.53-.4-1.54,1-2.54,1.43-3.81.4-1.1,1.42-.1,2.1-.27a3.06,3.06,0,0,0,2-2.19c.17-.46-.16-.71-.56-.7-1.35.06-3,1.49-3.84-.81a1.14,1.14,0,0,0-.61.08c-1.47.57-3,.09-4.56.56s-5.26-2-6.06-3.49l1.71.25c.06.72.61.68,1.12.7,1.88,1.68,6.75,1.21,8.62-.84,3.46-1.26,3.46-1.26,1.16-4.2a1.76,1.76,0,0,1-.27-.59,5.87,5.87,0,0,0-4.1-3.82c-3.8-1.35-6.68-.31-8.84,2.25a12.9,12.9,0,0,1-2.42,2.8c1.05,1.27,2.92,1.58,3,3.45-3.92-1.81-4.52-2.84-3.56-6.2,2.93-.33,3.77-3.17,5.66-4.75,2.13.24,4.33-.16,6.4.81a1.6,1.6,0,0,0,2-.65c.67-.92,1.66-1.51,2.64-.77s2.52,1.49,2.21,3a6.05,6.05,0,0,0,.65,3.56c.66,1.78,1.57,3.59-.13,5.33-.28.28-.42.67,0,.92a.79.79,0,0,0,1-.25c.95-1.31,2.25-3,1.51-4.35-1.46-2.67.49-3.53,2-4.41a2.1,2.1,0,0,0,1.3-2.22c-.32-3.61-.57-7.22-1.92-10.66a11.81,11.81,0,0,0-1.6-3,23.32,23.32,0,0,1-2.62-4.78c-.28-.63,0-1.63-1-1.68a2.09,2.09,0,0,0-2.33,1.13,3.75,3.75,0,0,1-3.82,2.07c.75-1.71,3-2.07,3.57-3.94l5.74-.8c-.11.78-1.17,1.15-.88,2.1-1.33,2.12.45,2.25,1.74,2.69a4.58,4.58,0,0,0,.74,2.61c1.68,2.61,3.7,5.11,3.87,8.44,0,.15.45.27.69.4C542.7,286.82,543.38,288.21,543.85,289.65Zm-12.7.19c-.49.07-.6.56-.47.63.94.51.29,2.38,1.92,2.24a.57.57,0,0,0,.53-.78A4,4,0,0,0,531.15,289.84Z" transform="translate(-230.17 -214.02)"/><path class="cls-12" d="M531.62,251l.18.67c.32,1.43-.41,2.16-1.63,1.6-3.77-1.74-7.84-1.82-11.8-2.4a140.25,140.25,0,0,0-28.45-1c-.8.05-2.15.55-1.37-1.23.49-.1.93-.25.87-.89l1.73-3.4c2.42-5.76,6.87-6.87,12.62-6.05,6,.84,12.09.25,17.87,2.39.34.13.67.29,1,.43a23.4,23.4,0,0,1,7.48,4C531.09,246.89,531,249,531.62,251Zm-35.45-9.86c.66.66,1.51-.23,1.92.43.67,1.08,1.17.19,1.38-.18a2.69,2.69,0,0,0,.43-1.95c-.22-.65-1-.23-1.53,0A3.23,3.23,0,0,0,496.17,241.1Z" transform="translate(-230.17 -214.02)"/><path class="cls-10" d="M550.9,278.61l-.84.07a17.2,17.2,0,0,1-4.47.47l-.87,0c-.37-.72-2.27.46-1.73-1.4,2.4-.26,3.09-1.41,2.81-3.78-.13-1.11-1.31-2-.87-3,.79-1.69.8-3.67,2-5.18,1.15-.28,1.08-1.55,1.79-2.19a1.25,1.25,0,0,0,1.32-1.33h0c.47-.06,1-.24.77-.79-.3-.86-1.09-.45-1.7-.46a10.65,10.65,0,0,1-1.74-3.1c3.1-3.33,5.6-4.41,8.65-3.75,0,1-1.17.28-1.49.92.22,0,.41.06.6.07,2.1.12,4.2-.21,6.28.72s2.58,2.3,1.44,4.22-2.35,4.1-3.52,6.16c-3,1.33-3.31,3.85-3,6.66-.89,2.17-2.64,3.55-4.48,4.84A.81.81,0,0,0,550.9,278.61Z" transform="translate(-230.17 -214.02)"/><path class="cls-14" d="M533.47,257.15c-14.86-3.38-29.82-3.74-44.8-3.88-.6,0-1.69.51-1.68-.71,0-.9.7-1.29,1.68-1.34,14-.68,27.88,0,41.58,3.14C531.71,254.7,533.13,255.11,533.47,257.15Z" transform="translate(-230.17 -214.02)"/><path class="cls-10" d="M531,269.8c-.58,1.87-2.82,2.23-3.57,3.94h0c-.64,0-1.28,0-1.32.89h0c-1.6.26-3.31.32-4,2.2a9.77,9.77,0,0,0-2.13.3,16.22,16.22,0,0,1-7.12,1.5c0-1.73-.15-3.45.72-5.09a1.83,1.83,0,0,0-.7-2.46c1.35-.71,2.4.73,3.72.5a56.55,56.55,0,0,1,9.8-.92,1,1,0,0,0,1.09-.84C528.69,270.36,529.85,269.6,531,269.8Z" transform="translate(-230.17 -214.02)"/><path class="cls-6" d="M527.51,269.82a1,1,0,0,1-1.09.84,56.55,56.55,0,0,0-9.8.92c-1.32.23-2.37-1.21-3.72-.5l-7-.59c-.36-1-1.17-.68-1.88-.61l-4.77-.2c-.24-1.09-1.18-.64-1.83-.81,0-1.2-1.3-.58-2.29-1.53C506.22,269,516.87,269.31,527.51,269.82Z" transform="translate(-230.17 -214.02)"/><path class="cls-6" d="M546.93,265.79c-1.2,1.51-1.21,3.49-2,5.18-.44.94.74,1.86.87,3,.28,2.37-.41,3.52-2.81,3.78L542.9,276l.05-1.32c.24-1.63-.52-3.25-.07-4.88.41-.87,1.31-1.57,1-2.71Z" transform="translate(-230.17 -214.02)"/><path class="cls-2" d="M535.89,271.1c-.29-1,.77-1.32.88-2.1l5.32-1.09c0,.62,0,1.24,0,1.86,0,.15,0,.3,0,.44-.54.11-1.09.21-.44.9V272c-.25,1.1-.41,2.26-1.73,2.66-.65,0-1.28,0-1.33-.89a.81.81,0,0,0-.87-.88.92.92,0,0,1-.46-.88.8.8,0,0,0-.88-.88Z" transform="translate(-230.17 -214.02)"/><path class="cls-13" d="M465.49,258.74a10.92,10.92,0,0,1-1.85-1.08c-.52-.45-1.27-.85-1.13-1.76a.72.72,0,0,1,.75-.67c.85.08,2-.57,2.31.93C465.55,257,465.52,257.88,465.49,258.74Z" transform="translate(-230.17 -214.02)"/><path class="cls-9" d="M542.07,269.77c0-.62,0-1.24,0-1.86l1.76-.85c.34,1.14-.56,1.84-1,2.71Z" transform="translate(-230.17 -214.02)"/><path class="cls-6" d="M549.11,261c.61,0,1.4-.4,1.7.46.2.55-.3.73-.77.79C549.77,261.82,549.1,261.66,549.11,261Z" transform="translate(-230.17 -214.02)"/><path class="cls-6" d="M491.67,268c-.87,0-1.78.18-2.22-.87C490.24,267.28,491.35,266.62,491.67,268Z" transform="translate(-230.17 -214.02)"/><path class="cls-6" d="M550,262.27a1.25,1.25,0,0,1-1.32,1.33A1.21,1.21,0,0,1,550,262.27Z" transform="translate(-230.17 -214.02)"/><path class="cls-6" d="M489,267.05c-.67.8-.77.2-.88-.36A.89.89,0,0,1,489,267.05Z" transform="translate(-230.17 -214.02)"/><path class="cls-6" d="M489.42,247.67c.06.64-.38.79-.87.89C488.52,247.94,488.84,247.68,489.42,247.67Z" transform="translate(-230.17 -214.02)"/><path class="cls-7" d="M538.54,273.75c.05.89.68.9,1.33.89-.29,1.76.73,2.72,2,3.59.47-.8-.34-2,1-2.26l.09,1.75c-.54,1.86,1.36.68,1.73,1.4-1.29,1.32-2,2.64,0,3.93a2.28,2.28,0,0,0-1.84,2.19c-.24-.13-.68-.25-.69-.4-.17-3.33-2.19-5.83-3.87-8.44a4.58,4.58,0,0,1-.74-2.61l0-.06Z" transform="translate(-230.17 -214.02)"/><path class="cls-7" d="M556.3,272.91c-.28-2.81.07-5.33,3-6.66a41.46,41.46,0,0,0-2.34,6.21C556.94,272.65,556.53,272.76,556.3,272.91Z" transform="translate(-230.17 -214.02)"/><path class="cls-7" d="M545.59,279.15a17.2,17.2,0,0,0,4.47-.47C548.58,280.26,547,280.43,545.59,279.15Z" transform="translate(-230.17 -214.02)"/><path class="cls-7" d="M550.9,278.61a.81.81,0,0,1,.92-.86A.79.79,0,0,1,550.9,278.61Z" transform="translate(-230.17 -214.02)"/><path class="cls-7" d="M446,358.9c.42,0,.43.31.46.58s0,.62-.34.69-.42-.29-.45-.56A.6.6,0,0,1,446,358.9Z" transform="translate(-230.17 -214.02)"/><path class="cls-4" d="M564.24,332.53c-.15-1.93-1.44-3.69-.9-5.74,1,.14.92,1,.88,1.64a1.93,1.93,0,0,0,1.31,2l0,2.21Z" transform="translate(-230.17 -214.02)"/><path class="cls-4" d="M563.26,326.42c-1.45-1-1.61-3-3.13-4,0-.3,0-.6.08-.9A4.91,4.91,0,0,1,563.26,326.42Z" transform="translate(-230.17 -214.02)"/><path class="cls-10" d="M560.21,321.52c0,.3-.05.6-.08.9-1.52-.31-.39,1.8-1.62,1.76,0-1.16,0-2.32,0-3.48l.43-.15Z" transform="translate(-230.17 -214.02)"/><path class="cls-8" d="M530.12,245a23.4,23.4,0,0,0-7.48-4c2.57.35,5.49-.27,7.18,2.55Z" transform="translate(-230.17 -214.02)"/><path class="cls-10" d="M566.41,347.61a1.21,1.21,0,0,1-.07.43c-.46.76-.46,2.23-1.6,2s-.52-1.51-.53-2.32c-.05-3.59,0-7.18,0-10.77,1.33-.08,1.33.8,1.32,1.75,0,2.28,0,4.55,0,6.83C565.51,346.38,565.49,347.19,566.41,347.61Z" transform="translate(-230.17 -214.02)"/><path class="cls-10" d="M567.72,345.36a.79.79,0,0,1-.83.92C566.84,345.69,567.16,345.41,567.72,345.36Z" transform="translate(-230.17 -214.02)"/><path class="cls-2" d="M512.88,278.63a16.22,16.22,0,0,0,7.12-1.5,9.77,9.77,0,0,1,2.13-.3,3.78,3.78,0,0,0,4-2.2h0c.65,0,1.31.05,1.32-.89h0a3.75,3.75,0,0,0,3.82-2.07,2.09,2.09,0,0,1,2.33-1.13c1,0,.72,1,1,1.68a23.32,23.32,0,0,0,2.62,4.78,11.81,11.81,0,0,1,1.6,3c1.35,3.44,1.6,7,1.92,10.66a2.1,2.1,0,0,1-1.3,2.22c-1.47.88-3.42,1.74-2,4.41.74,1.36-.56,3-1.51,4.35a.79.79,0,0,1-1,.25c-.42-.25-.28-.64,0-.92,1.7-1.74.79-3.55.13-5.33a6.05,6.05,0,0,1-.65-3.56c.31-1.54-1.2-2.29-2.21-3s-2-.15-2.64.77a1.6,1.6,0,0,1-2,.65c-2.07-1-4.27-.57-6.4-.81l-1.34-.11a12.88,12.88,0,0,0,1.84-2.74c.4-.91.59-1.64-.18-2.37a2,2,0,0,0-2.4-.24c-3,1.17-3.53,3.52-3.17,6.34l0,0c-.65,0-.93.29-.89.92a6.66,6.66,0,0,0,.46,2.93c-1,3.36-.36,4.39,3.56,6.2h0c.8,1.51,4.64,3.93,6.06,3.49s3.09,0,4.56-.56a1.14,1.14,0,0,1,.61-.08c.86,2.3,2.49.87,3.84.81.4,0,.73.24.56.7a3.06,3.06,0,0,1-2,2.19c-.68.17-1.7-.83-2.1.27-.47,1.27-1.83,2.27-1.43,3.81.49,1.9.49,4.18,3.23,4.53.86.11.66.72.22,1.08-1.12.89-.59,1.9-.15,2.76a5.74,5.74,0,0,1-.35,6c-1.22-.62-1.07-2-1.5-3a10,10,0,0,0-4.13-4.85,25.38,25.38,0,0,1-4.11-3.6,98.83,98.83,0,0,1-8.17-8.34,12.63,12.63,0,0,1-2.86-6,38.28,38.28,0,0,1-.69-10.24c1.57-1.11.48-2.7.73-4.05l0-.81c.45-.25.52-.53.08-.85,0-.45.07-.91.1-1.36.56-.12.93-.31.31-.86l.09-.91C513.4,280.46,512.69,279.39,512.88,278.63Z" transform="translate(-230.17 -214.02)"/><path class="cls-4" d="M530.25,338.22a3.53,3.53,0,0,0-1.89,2.18l-.13.09a.78.78,0,0,0-.76.78c-.46.45-1.09.65-1.44,1.3-1.35,2.57-1.38,2.53-4.94,3.24a1.57,1.57,0,0,0-1,.78c-1.45,3.07-4.5,4.43-6.88,6.49-1.12,1-2.17,2-3.22,3-2.72,2.63-4.81,2.29-6.78-.82-.91-1.44-2.65-1.71-4.31-1.77a.8.8,0,0,1-.17-.15c-.1-1,1.49-.72,1.36-1.76,2.08,1.18,4.36.85,6.6.89,1.07,1.7,2.35,1.12,3.37.09a8.45,8.45,0,0,0,2.84-6.42c-.07-1.92-.14-4,1.15-5.46,2-2.21,5.24-3.09,6.49-6.11,0-.05.12-.08.19-.1,2.89-.72,3.39-3,3.67-5.56l-1.24.66-.11-.1a9.52,9.52,0,0,0,.54-2.8c-.05-.43,0-1,.53-1.06s.7.43.89.82a2.55,2.55,0,0,1,.18.63c.87,4,1.19,4.11,4.71,1.77.49-.32.94-.74,1.59-.65,0,.45,0,.89,0,1.33,0,.28-.06.57-.08.85-.14,0-.4.08-.4.14C530.88,333.08,529.14,335.51,530.25,338.22Z" transform="translate(-230.17 -214.02)"/><path class="cls-4" d="M506.71,322.43c-1.64,2-.57,4.09.25,5.91.72,1.6,2.78,1.46,4.25,1.93,2.15.69,4.46.86,6.67,1.39s3.66-1,5.16-2.2l.11.1a3.56,3.56,0,0,1-2.51,3.72c-1.4.46-3.06.14-4.61.16-3.72.08-6.85-1.68-9.94-3.39a2.57,2.57,0,0,0-2.33-.19c-2.77.77-5,3.06-8.13,2.74a12.38,12.38,0,0,1-9.78-4l.46-.08a24.82,24.82,0,0,0,11.11,1.95,19.08,19.08,0,0,0,4.85-1.31,2.66,2.66,0,0,0,1.77-2.78c-.05-1.32,0-2.64,0-4Z" transform="translate(-230.17 -214.02)"/><path class="cls-13" d="M497.45,317.49c-1.31-2.6-.35-4.09,2.52-4.85a22.94,22.94,0,0,1,7.58-.78,11.4,11.4,0,0,1,5.08,1.83c1.6,1,1.63,3.08.23,4.64-.27-1.86-.9-2.16-2.78-1.28a10.23,10.23,0,0,1-6.33,1.15,25.73,25.73,0,0,0-5.56-.65Zm5.66-1.71c.95,0,2.35.1,2.26-1-.08-.94-1.63-.94-2.58-1.15s-1.46.1-1.42,1.12C501.41,316,502.36,315.72,503.11,315.78Z" transform="translate(-230.17 -214.02)"/><path class="cls-7" d="M485.85,328.58a12.38,12.38,0,0,0,9.78,4c0,.28,0,.56-.05.85h-5.15a11.52,11.52,0,0,0,2.34,3.76c.53.56,1.06,1.51,1.9,1.32s.7-1.31,1-2l.85.05c0,2.93,0,5.86,0,8.79l-.06.91h0a2.36,2.36,0,0,1-.87-1.93,5.46,5.46,0,0,0-2.25-4.44,12.57,12.57,0,0,1-3.69-4.53,10.43,10.43,0,0,0-3.83-4.82,8.17,8.17,0,0,1-4-6c.23-1,.46-1.91.71-3,1.39.76-.05,2.55,1.35,3.13l.21.88c0,.59,0,1.16.78,1.21l.08.12C485.05,327.57,484.91,328.33,485.85,328.58Z" transform="translate(-230.17 -214.02)"/><path class="cls-6" d="M498.19,317.55a25.73,25.73,0,0,1,5.56.65,10.23,10.23,0,0,0,6.33-1.15c1.88-.88,2.51-.58,2.78,1.28l-.05.06a1.3,1.3,0,0,0-1.29,1.24l-.09.07c-.63,0-1.18.09-1.2.9a5.61,5.61,0,0,1-3.52,1.83l-2.67,0c-1-1-2.46-1-3.48-1.83C500.24,319.19,498.32,319.07,498.19,317.55Z" transform="translate(-230.17 -214.02)"/><path class="cls-4" d="M498.19,317.55c.13,1.52,2.05,1.64,2.37,3-2-.08-2.73-1.38-3.11-3.07Z" transform="translate(-230.17 -214.02)"/><path class="cls-4" d="M511.49,285.62c-.25,1.35.84,2.94-.73,4.05C511,288.31,510,286.74,511.49,285.62Z" transform="translate(-230.17 -214.02)"/><path class="cls-12" d="M485.85,328.58c-.94-.25-.8-1-.82-1.69,1,.05,1.09.89,1.28,1.61Z" transform="translate(-230.17 -214.02)"/><path class="cls-13" d="M511.52,319.63a1.3,1.3,0,0,1,1.29-1.24A1.27,1.27,0,0,1,511.52,319.63Z" transform="translate(-230.17 -214.02)"/><path class="cls-10" d="M531.52,329.5c0-.44,0-.88,0-1.33l.42-.47a.86.86,0,0,0,.49.95A.84.84,0,0,1,531.52,329.5Z" transform="translate(-230.17 -214.02)"/><path class="cls-12" d="M485,326.77c-.81,0-.81-.62-.78-1.21C485,325.57,485,326.16,485,326.77Z" transform="translate(-230.17 -214.02)"/><path class="cls-13" d="M510.23,320.6c0-.81.57-.9,1.2-.9C511.36,320.44,510.86,320.61,510.23,320.6Z" transform="translate(-230.17 -214.02)"/><path class="cls-4" d="M511.6,284c.44.32.37.6-.08.85C511.14,284.49,511.15,284.21,511.6,284Z" transform="translate(-230.17 -214.02)"/><path class="cls-4" d="M512,281.74c.62.55.25.74-.31.86A.62.62,0,0,1,512,281.74Z" transform="translate(-230.17 -214.02)"/><path class="cls-4" d="M481.9,324.54a8.17,8.17,0,0,0,4,6,10.43,10.43,0,0,1,3.83,4.82,12.57,12.57,0,0,0,3.69,4.53,5.46,5.46,0,0,1,2.25,4.44,2.36,2.36,0,0,0,.87,1.93c-.41,2.61,1.39,4.65,1.8,7.05l-.15.13c-1.39-.42-1.52-2.08-2.61-2.73A33.53,33.53,0,0,1,484,338.51c.35-.26,1.3-.39.63-1-2.82-2.56-2.43-6.29-3.61-9.44-.43-1.14-1.19-2.23-.77-3.55Z" transform="translate(-230.17 -214.02)"/><path class="cls-11" d="M527.47,341.27a.78.78,0,0,1,.76-.78C528.32,341.08,528.08,341.35,527.47,341.27Z" transform="translate(-230.17 -214.02)"/><path class="cls-11" d="M516,360.53a.87.87,0,0,1-.69.86C515.12,360.75,515.36,360.47,516,360.53Z" transform="translate(-230.17 -214.02)"/><path class="cls-4" d="M498.89,353.48c-.1.16-.17.42-.3.45-.34.07-.33-.28-.42-.48l.14-.13a2.77,2.77,0,0,0,.41,0A.8.8,0,0,0,498.89,353.48Z" transform="translate(-230.17 -214.02)"/><path class="cls-10" d="M504,269.88c.71-.07,1.52-.4,1.88.61C505.11,270.63,504.32,270.93,504,269.88Z" transform="translate(-230.17 -214.02)"/><path class="cls-13" d="M482.06,296.87c-.19-1.77-.64-3.67,2-4.1-.17,1.39.3,2.12,1.83,1.78,0,.21,0,.43,0,.64,0,.84,0,1.63,1.19,1.58a1,1,0,0,0,1.06-1.06c.05-1.18-.73-1.22-1.57-1.2h-.65c.39-1.56-.39-2-1.78-1.81,1.05-1.66,2.67-.68,4-.71,2.2,0,4.41,2,5,4.08.2.71-.38.62-.74.76-1.09-.48-1.91-.59-2.69.73a3,3,0,0,1-5,.28A2.33,2.33,0,0,0,482.06,296.87Z" transform="translate(-230.17 -214.02)"/><path class="cls-4" d="M482.06,296.87a2.33,2.33,0,0,1,2.65,1,3,3,0,0,0,5-.28c.78-1.32,1.6-1.21,2.69-.73,0,.22,0,.45,0,.67a2,2,0,0,0-1.41,1.43c-2.46,1.42-5,1.23-7.58.37C482.81,298.57,481.69,298.14,482.06,296.87Z" transform="translate(-230.17 -214.02)"/><path class="cls-13" d="M491,298.92a2,2,0,0,1,1.41-1.43c0,.35.09.7.13,1C492.13,299.11,491.54,298.94,491,298.92Z" transform="translate(-230.17 -214.02)"/><path class="cls-12" d="M510.47,394.59q5.52,3.63.58,7.85l-2,.5c-2.9-.54-4.39-1.77-4.54-3.88a4,4,0,0,1,2.91-4.32c.28-.1.54-.22.81-.34Z" transform="translate(-230.17 -214.02)"/><path class="cls-3" d="M510.47,394.59l-2.23-.19-.54-7.9,2.05,0Z" transform="translate(-230.17 -214.02)"/><path class="cls-3" d="M509.06,402.94l2-.5.39,6.61-2,0Q509.24,406,509.06,402.94Z" transform="translate(-230.17 -214.02)"/><path class="cls-10" d="M558.51,325.51c.81,2.57.29,4.79-1.35,5.74Z" transform="translate(-230.17 -214.02)"/><path class="cls-10" d="M557.11,332.55c-.16.79.53,1.89-.83,2.24C556.4,334,555.74,332.89,557.11,332.55Z" transform="translate(-230.17 -214.02)"/><path class="cls-13" d="M552.55,339.31l-.32.17-.18-.45c.12,0,.28-.11.35-.07S552.5,339.18,552.55,339.31Z" transform="translate(-230.17 -214.02)"/><path class="cls-6" d="M555.74,355.14c.18-1.64-.79-3.2-.37-4.87,1.66.75,2.33.27,3-2.55,1.11-4.57,2.36-9.14,1.79-13.91-.29-2.47,1.6-4.53,1-7a6.68,6.68,0,0,1,1.11,6.07c-.72,3.09-.7,6.27-1.32,9.31-.88,4.35-1.74,8.79-3.88,12.8-.32.6-.78.57-1.29.59C555.79,355.41,555.77,355.28,555.74,355.14Z" transform="translate(-230.17 -214.02)"/><path class="cls-10" d="M557.12,357.32c0,.3,0,.61,0,.91-1.1-.21-.78-1.09-.83-1.79Z" transform="translate(-230.17 -214.02)"/><path class="cls-13" d="M536.77,326a6.83,6.83,0,0,0,1.85-2.25c1.17.28,3.2-1,3,1.71-1.59.49-1.5,2.64-3.09,3.13l-3,0c0-.45,0-.9,0-1.35C536.3,327.24,536.44,326.52,536.77,326Z" transform="translate(-230.17 -214.02)"/><path class="cls-6" d="M535.47,327.25c0,.45,0,.9,0,1.35a4.56,4.56,0,0,1-4,1.75c0-.28,0-.57.08-.85a.84.84,0,0,0,.87-.85v0c.64,0,1.27-.05,1.28-.92,0-.14.05-.27.07-.4l.8-.06.9,0Z" transform="translate(-230.17 -214.02)"/><path class="cls-7" d="M557.19,366.23v-1.9l1.25.06c0,.59,0,1.18,0,1.77Z" transform="translate(-230.17 -214.02)"/><path class="cls-10" d="M558.44,364.39l-1.25-.06.45-2.18C558.94,362.53,558.31,363.6,558.44,364.39Z" transform="translate(-230.17 -214.02)"/><path class="cls-10" d="M557.19,366.23l1.24-.07c.11.79-.09,1.37-1,1.44Z" transform="translate(-230.17 -214.02)"/><path class="cls-6" d="M541.67,259.22c.13-.33.19-.81.61-.81.61,0,.62.56.55,1a4.9,4.9,0,0,1-2.42,3.49c-.52.31-1.31.64-1.6.15-.52-.9.72-.79,1-1.27A2.67,2.67,0,0,0,541.67,259.22Z" transform="translate(-230.17 -214.02)"/><path class="cls-13" d="M474.36,258.21c-.52-2.67.73-4.37,2.59-4.29.37,0,.78,0,.92.42s-.22.7-.57.73C475.67,255.21,475.15,256.51,474.36,258.21Z" transform="translate(-230.17 -214.02)"/><path class="cls-6" d="M539.83,261c-.58,0-1.58.73-1.62-.22s1.38-1.5,2-2.38c.31-.43.63.27.72.7Z" transform="translate(-230.17 -214.02)"/><path class="cls-6" d="M477.89,256.69c-.36.55-.47,1.39-1.32,1.51-.53.07-.7-.38-.75-.84-.12-1.06.78-1,1.39-1.24C477.56,256,477.91,256.15,477.89,256.69Z" transform="translate(-230.17 -214.02)"/><path class="cls-2" d="M539.83,261l1.11-1.9.73.11a2.67,2.67,0,0,1-1.83,2.52C539.83,261.5,539.83,261.25,539.83,261Z" transform="translate(-230.17 -214.02)"/><path class="cls-6" d="M520.87,300.9l-1.71-.25h0c-.09-1.87-2-2.18-3-3.45a12.9,12.9,0,0,0,2.42-2.8c2.16-2.56,5-3.6,8.84-2.25a5.87,5.87,0,0,1,4.1,3.82,1.76,1.76,0,0,0,.27.59c2.3,2.94,2.3,2.94-1.16,4.2l-1.23-.1.31-2.16c.19-.08.56-.21.56-.22-.49-1.46-.79-3.1-2.44-3.75-1.84-.73-3.71-1.65-5.64-.2-.89.13-1.28.77-1.55,1.53-1.07.86-.88,1.76-.09,2.69C520.32,299.38,521.61,300,520.87,300.9Z" transform="translate(-230.17 -214.02)"/><path class="cls-4" d="M529.69,298.5c-.1.72-.21,1.44-.31,2.16-2.32,1.45-4.92.72-7.39.94-.51,0-1.06,0-1.12-.7.74-.91-.55-1.52-.35-2.35.58-.29,1.05-.73,1.61.21,1.57,2.57,3.35,2.69,5.47.5C528.18,298.65,528.58,297.62,529.69,298.5Z" transform="translate(-230.17 -214.02)"/><path class="cls-10" d="M515.59,294.45a6.66,6.66,0,0,1-.46-2.93.92.92,0,0,0,.89-.92l0,0,1.27-.06c.6.09.89-.25,1-.76l1.6-.17,1.34.11C519.36,291.28,518.52,294.12,515.59,294.45Z" transform="translate(-230.17 -214.02)"/><path class="cls-10" d="M522,301.6c2.47-.22,5.07.51,7.39-.94l1.23.1C528.74,302.81,523.87,303.28,522,301.6Z" transform="translate(-230.17 -214.02)"/><path class="cls-7" d="M531.15,289.84a4,4,0,0,1,2,2.09.57.57,0,0,1-.53.78c-1.63.14-1-1.73-1.92-2.24C530.55,290.4,530.66,289.91,531.15,289.84Z" transform="translate(-230.17 -214.02)"/><path class="cls-7" d="M537.21,272a.92.92,0,0,0,.46.88c0,.29,0,.58,0,.86l0,.06c-1.29-.44-3.07-.57-1.74-2.69h.44A.8.8,0,0,0,537.21,272Z" transform="translate(-230.17 -214.02)"/><path class="cls-10" d="M536.77,326c-.33.53-.47,1.25-1.3,1.26l0,0c0-.53-.28-.84-.85-.81l0-.05C535.05,324.81,536,325.7,536.77,326Z" transform="translate(-230.17 -214.02)"/><path class="cls-10" d="M533.68,327.71c0,.87-.64.91-1.28.92A1.17,1.17,0,0,1,533.68,327.71Z" transform="translate(-230.17 -214.02)"/><path class="cls-10" d="M534.55,327.25l-.8.06c-.11-.63.23-.89.81-.94l0,.05C534.58,326.69,534.57,327,534.55,327.25Z" transform="translate(-230.17 -214.02)"/><path class="cls-6" d="M496.17,241.1a3.23,3.23,0,0,1,2.2-1.73c.5-.2,1.31-.62,1.53,0a2.69,2.69,0,0,1-.43,1.95c-.21.37-.71,1.26-1.38.18C497.68,240.87,496.83,241.76,496.17,241.1Z" transform="translate(-230.17 -214.02)"/><path class="cls-9" d="M526.14,274.63a3.78,3.78,0,0,1-4,2.2C522.83,275,524.54,274.89,526.14,274.63Z" transform="translate(-230.17 -214.02)"/><path class="cls-9" d="M527.46,273.74c0,.94-.67.92-1.32.89C526.18,273.74,526.82,273.73,527.46,273.74Z" transform="translate(-230.17 -214.02)"/><path class="cls-9" d="M542.9,276c-1.35.26-.54,1.46-1,2.26-1.29-.87-2.31-1.83-2-3.59,1.32-.4,1.48-1.56,1.73-2.66,1.09.57-.3,2.39,1.35,2.67Z" transform="translate(-230.17 -214.02)"/><path class="cls-7" d="M543,274.65c-1.65-.28-.26-2.1-1.35-2.67,0-.29,0-.58,0-.87a.87.87,0,0,0,.44-.9c0-.14,0-.29,0-.44h.81C542.43,271.4,543.19,273,543,274.65Z" transform="translate(-230.17 -214.02)"/><path class="cls-9" d="M542.05,270.21a.87.87,0,0,1-.44.9C541,270.42,541.51,270.32,542.05,270.21Z" transform="translate(-230.17 -214.02)"/><path class="cls-9" d="M537.21,272a.8.8,0,0,1-.88-.88A.8.8,0,0,1,537.21,272Z" transform="translate(-230.17 -214.02)"/><path class="cls-9" d="M537.68,273.73c0-.28,0-.57,0-.86a.81.81,0,0,1,.87.88Z" transform="translate(-230.17 -214.02)"/><path class="cls-11" d="M519.91,289.59l-1.6.17a.78.78,0,0,0-1,.76l-1.27.06c-.36-2.82.14-5.17,3.17-6.34a2,2,0,0,1,2.4.24c.77.73.58,1.46.18,2.37A12.88,12.88,0,0,1,519.91,289.59Z" transform="translate(-230.17 -214.02)"/><path class="cls-9" d="M516,290.6a.92.92,0,0,1-.89.92C515.09,290.89,515.37,290.57,516,290.6Z" transform="translate(-230.17 -214.02)"/><path class="cls-11" d="M496.57,345.36c0-2.93,0-5.86,0-8.79a4.7,4.7,0,0,1,.88-2.25,3.13,3.13,0,0,1,2.77,1c1.57,1.75,3.18,3.51,3.82,5.87.14.51.2,1,.89,1s.78-.44,1-.95c1-2.77,3.41-4.17,5.71-5.64l.88.87a4.12,4.12,0,0,0-.44,2.36,38.83,38.83,0,0,1-.92,8.73,5.61,5.61,0,0,1-4.41,4.83c-2.24,0-4.52.29-6.6-.89-1.38-1.52-2.85-3-2.7-5.29A.8.8,0,0,0,496.57,345.36Z" transform="translate(-230.17 -214.02)"/><path class="cls-7" d="M506.68,352.46a5.61,5.61,0,0,0,4.41-4.83,38.83,38.83,0,0,0,.92-8.73,4.12,4.12,0,0,1,.44-2.36c.63.06,1.17.3,1.27,1,.23,1.66,1,1.3,1.85.5s2.56-.87,2.45-2.17c-.13-1.46-2-.8-2.87-1.5l.88-.92c1.55,0,3.21.3,4.61-.16a3.56,3.56,0,0,0,2.51-3.72l1.24-.66c-.28,2.57-.78,4.84-3.67,5.56-.07,0-.17.05-.19.1-1.25,3-4.52,3.9-6.49,6.11-1.29,1.45-1.22,3.54-1.15,5.46a8.45,8.45,0,0,1-2.84,6.42C509,353.58,507.75,354.16,506.68,352.46Z" transform="translate(-230.17 -214.02)"/><path class="cls-7" d="M497.38,346.28c-.15,2.3,1.32,3.77,2.7,5.29.13,1-1.46.75-1.36,1.76a2.77,2.77,0,0,1-.41,0c-.41-2.4-2.21-4.44-1.8-7.05h.87Z" transform="translate(-230.17 -214.02)"/><path class="cls-10" d="M516,333.44c-.29.31-.58.62-.88.92-.57,0-1.16-.08-1.38.7-.16.59-.52.61-.91.16-1.48-2.41-4.2-2.09-6.41-2.86-.55-.19-.68.51-.6.92.52,2.7-1.17,5.07-.93,8.19-1.41-3.36-.59-6.47-1.07-9.48-1,.22-1.87.46-2.7.67-1.31.33-2.81.42-3.74,1.66a4.7,4.7,0,0,0-.88,2.25l-.85-.05c0-1-.06-2-.1-3.07,0-.29,0-.57.05-.85,3.11.32,5.36-2,8.13-2.74a2.57,2.57,0,0,1,2.33.19C509.18,331.76,512.31,333.52,516,333.44Z" transform="translate(-230.17 -214.02)"/><path class="cls-7" d="M503.11,315.79c-.75-.07-1.7.19-1.74-1.06,0-1,.61-1.29,1.42-1.12s2.5.21,2.58,1.15C505.46,315.88,504.06,315.79,503.11,315.79Z" transform="translate(-230.17 -214.02)"/><path class="cls-4" d="M495.58,333.45c0,1,.07,2.05.1,3.07-.31.7-.15,1.82-1,2s-1.37-.76-1.9-1.32a11.52,11.52,0,0,1-2.34-3.76Z" transform="translate(-230.17 -214.02)"/><path class="cls-4" d="M497.38,346.28h-.87l.06-.91A.8.8,0,0,1,497.38,346.28Z" transform="translate(-230.17 -214.02)"/><path class="cls-5" d="M485.9,294.5h.65c.84,0,1.62,0,1.57,1.2a1,1,0,0,1-1.06,1.06c-1.19.05-1.21-.74-1.19-1.58,0-.21,0-.43,0-.64Z" transform="translate(-230.17 -214.02)"/><path class="cls-4" d="M484.12,292.69c1.39-.18,2.17.25,1.78,1.81l0,.05c-1.53.34-2-.39-1.83-1.78Z" transform="translate(-230.17 -214.02)"/><path class="cls-13" d="M534.55,327.25c0-.28,0-.56.05-.83.57,0,.82.28.85.81Z" transform="translate(-230.17 -214.02)"/><path class="cls-13" d="M529.69,298.5c-1.11-.88-1.51.15-2.09.76-2.12,2.19-3.9,2.07-5.47-.5-.56-.94-1-.5-1.61-.21-.78-.93-1-1.83.1-2.69.44,1.26,1.45,1,2.39.88.13.65-.25,1.55.8,1.75a1.19,1.19,0,0,0,1.21-.25,1.74,1.74,0,0,0,.2-1.65c-.3-1.14-1.29-.58-2-.7-.07-.71-.24-1.35-1.05-1.56,1.93-1.45,3.8-.53,5.64.2,1.65.65,2,2.29,2.44,3.75C530.25,298.29,529.88,298.42,529.69,298.5Z" transform="translate(-230.17 -214.02)"/><path class="cls-4" d="M523,296.74c-.94.1-2,.38-2.39-.88.27-.76.66-1.4,1.55-1.53.81.21,1,.85,1.05,1.56Z" transform="translate(-230.17 -214.02)"/><path class="cls-2" d="M517.27,290.52a.78.78,0,0,1,1-.76C518.16,290.27,517.87,290.61,517.27,290.52Z" transform="translate(-230.17 -214.02)"/><path class="cls-7" d="M497.41,334.32c.93-1.24,2.43-1.33,3.74-1.66.83-.21,1.68-.45,2.7-.67.48,3-.34,6.12,1.07,9.48-.24-3.12,1.45-5.49.93-8.19-.08-.41,0-1.11.6-.92,2.21.77,4.93.45,6.41,2.86-.48,0-1-.09-1.29.45-2.3,1.47-4.69,2.87-5.71,5.64-.19.51-.3,1-1,.95s-.75-.52-.89-1c-.64-2.36-2.25-4.12-3.82-5.87A3.13,3.13,0,0,0,497.41,334.32Z" transform="translate(-230.17 -214.02)"/><path class="cls-4" d="M511.57,335.67c.3-.54.81-.44,1.29-.45.39.45.75.43.91-.16.22-.78.81-.68,1.38-.7.89.7,2.74,0,2.87,1.5.11,1.3-1.62,1.42-2.45,2.17s-1.62,1.16-1.85-.5c-.1-.69-.64-.93-1.27-1Z" transform="translate(-230.17 -214.02)"/><path class="cls-5" d="M523,296.74l.21-.85c.71.12,1.7-.44,2,.7a1.74,1.74,0,0,1-.2,1.65,1.19,1.19,0,0,1-1.21.25C522.76,298.29,523.14,297.39,523,296.74Z" transform="translate(-230.17 -214.02)"/><path class="cls-14" d="M489.79,359a1.6,1.6,0,0,0-.13-.3,1.31,1.31,0,0,0-.19-.27,1.71,1.71,0,0,0-.25-.22l-.18-.11a.42.42,0,0,0-.19-.06.45.45,0,0,0-.2,0,.56.56,0,0,0-.17.09.44.44,0,0,0-.13.14.53.53,0,0,0-.05.39l.05.12a.58.58,0,0,0,.18.17,1.22,1.22,0,0,1,.19.12l-.1-.08.17.17-.08-.1a.72.72,0,0,1,.12.21l-.05-.12a.49.49,0,0,1,0,.11.53.53,0,0,0,.23.3.33.33,0,0,0,.19.06.46.46,0,0,0,.2,0,.52.52,0,0,0,.3-.23.58.58,0,0,0,.05-.39Z" transform="translate(-230.17 -214.02)"/><path class="cls-14" d="M488.5,357.91a85,85,0,0,0-6.33-7.6q-1.69-1.8-3.49-3.51c-.6-.56-1.2-1.12-1.82-1.67s-1.59-1.09-1.68-1.82-1.07-.64-1,0a2.64,2.64,0,0,0,1.05,1.71c.61.55,1.24,1.09,1.84,1.65,1.3,1.19,2.55,2.42,3.77,3.69a83,83,0,0,1,6.8,8.06c.38.51,1.25,0,.86-.51Z" transform="translate(-230.17 -214.02)"/><path class="cls-14" d="M473.5,341.15c.05-.34-.23-.6-.44-.82a4.61,4.61,0,0,0-.59-.58,2.4,2.4,0,0,0-1.48-.4.51.51,0,0,0-.5.5.5.5,0,0,0,.5.5h.45l.27.07c.07,0,0,0,0,0l.06,0,.12.08c.05,0-.06-.06,0,0l.05,0,.12.12.23.24.23.25,0,.05c.05,0,0,0,0,0s.05.12,0,0,0-.14,0-.07a.5.5,0,0,0,.86.35.64.64,0,0,0,.14-.35Z" transform="translate(-230.17 -214.02)"/><path class="cls-14" d="M488.15,357.38a4.48,4.48,0,0,1-.6-.89l-.78.61a4.5,4.5,0,0,0,.66.57c.43.3.92-.28.69-.68a18.62,18.62,0,0,0-1.48-2.32c-.57-.74-1.25-1.38-1.85-2.1-1.21-1.46-2.1-3.19-3.22-4.73a25,25,0,0,0-3.6-4.08,9.69,9.69,0,0,0-4.57-2.56c-.63-.11-.9.86-.27,1a9.16,9.16,0,0,1,4.52,2.65,25.53,25.53,0,0,1,3.43,4.05c1,1.39,1.8,2.92,2.87,4.24.54.67,1.17,1.26,1.72,1.93a16.52,16.52,0,0,1,1.58,2.45l.69-.68a3.13,3.13,0,0,1-.47-.42c-.4-.43-1,.12-.78.61a4.74,4.74,0,0,0,.75,1.08c.43.49,1.14-.22.71-.7Z" transform="translate(-230.17 -214.02)"/><path class="cls-14" d="M480.48,349.42a.5.5,0,0,0,0-1,.5.5,0,0,0,0,1Z" transform="translate(-230.17 -214.02)"/><path class="cls-14" d="M480.81,350.45a.5.5,0,0,0,0-1,.5.5,0,0,0,0,1Z" transform="translate(-230.17 -214.02)"/><path class="cls-14" d="M481.77,349.15a4,4,0,0,0-1.13-1.19.51.51,0,0,0-.74.3.75.75,0,0,0,.09.65.5.5,0,0,0,.68.18c.61-.35.17-.95-.12-1.34s-.76-.95-1.16-1.41a.5.5,0,0,0-.84.48,2.25,2.25,0,0,0,.65,1.06.51.51,0,0,0,.79-.61,8.22,8.22,0,0,0-2.05-2.15c-.41-.37-1.11.1-.79.6a2.41,2.41,0,0,0,.83.79c.41.22,1-.26.69-.69-.74-1-1.94-1.48-2.73-2.43l-.71.71a6.86,6.86,0,0,0,1.13.95c.46.32,1.05-.43.61-.78l-2.14-1.67a.5.5,0,0,0-.7.71,26.65,26.65,0,0,0,2.45,1.76.51.51,0,0,0,.74-.57,2.78,2.78,0,0,0-1-1.4c-.46-.34-1,.4-.61.79L477,345.2a.5.5,0,0,0,.84-.48.91.91,0,0,0-.43-.61c-.54-.35-1,.51-.51.87h0l.84-.48-1.33-1.32-.61.79a1.55,1.55,0,0,1,.55.8l.74-.57a23.66,23.66,0,0,1-2.26-1.6l-.7.71,2.13,1.67.6-.79a5.8,5.8,0,0,1-.92-.8c-.45-.47-1.11.22-.71.71.73.88,1.9,1.3,2.57,2.23l.69-.69a1.12,1.12,0,0,1-.47-.42l-.79.6,1.13,1a3.15,3.15,0,0,1,.76.94l.79-.61a1.3,1.3,0,0,1-.4-.61l-.83.48.72.86c.11.13.21.27.32.41a1.33,1.33,0,0,1,.28.39v-.2l.23-.3-.05,0,.68.18-.05-.08.07.25v-.06l-.74.3a2.81,2.81,0,0,1,.78.83c.33.55,1.2.05.86-.5Z" transform="translate(-230.17 -214.02)"/><path class="cls-14" d="M489,358.78a2.21,2.21,0,0,0-.37-1.06,2.41,2.41,0,0,0-.37-.41,3.55,3.55,0,0,1-.33-.34l.08.11-.08-.13-.79.61c.22.17.43.35.64.53a3.78,3.78,0,0,1,.5.48l-.08-.1a2,2,0,0,1,.19.31l-.05-.12a1.17,1.17,0,0,1,.07.25.5.5,0,0,0,.91.12.5.5,0,0,0,.05-.38,1.9,1.9,0,0,0-.62-1c-.28-.27-.6-.51-.9-.76a.58.58,0,0,0-.36-.15.55.55,0,0,0-.3.11.52.52,0,0,0-.13.65,7.29,7.29,0,0,0,.75.82l-.08-.1a1.31,1.31,0,0,1,.21.36l-.05-.12a1.45,1.45,0,0,1,.12.42l0-.13s0,.05,0,.07a.53.53,0,0,0,.15.36.5.5,0,0,0,.85-.36Z" transform="translate(-230.17 -214.02)"/><path class="cls-14" d="M455.62,331.68a3.18,3.18,0,0,0-1.35.7,4,4,0,0,0-1.09,1,1.94,1.94,0,0,0-.3,1.44,5.07,5.07,0,0,0,.67,1.36.5.5,0,0,0,.91-.12c.11-.43,0-.87.13-1.3a7,7,0,0,0,.25-1.35.5.5,0,0,0-.93-.26c-.27.52-.72,1.59,0,1.9s1.27-.41,1.44-1a1.62,1.62,0,0,0,0-.9.6.6,0,0,0-1-.22,1,1,0,0,0-.21,1,.78.78,0,0,0,1,.24.83.83,0,0,0,.59-.9.69.69,0,0,0-1-.48.5.5,0,0,0-.18.68.51.51,0,0,0,.69.18l-.48-.26,0-.12,0,0h-.07c-.06,0,0,0,0,0l.22.13,0,0,.07.25c0,.09,0-.05,0,0s.1-.06,0,0l-.25.07h0l-.25-.06,0,0-.18-.18s0-.14,0,0v.11a1,1,0,0,1-.08.3.63.63,0,0,1-.12.18l-.07.05c0-.09.35.18.21,0l.13.23v0l0-.13a1.55,1.55,0,0,1,.05-.23,3,3,0,0,1,.17-.41l-.93-.25a6.51,6.51,0,0,1-.23,1.15,5.13,5.13,0,0,0-.09.67,2.58,2.58,0,0,1,0,.56l.91-.12a7.44,7.44,0,0,1-.52-1,.85.85,0,0,1,.16-.82,2.48,2.48,0,0,1,.7-.62l.48-.32.24-.15s.2-.12.15-.11a.52.52,0,0,0,.5-.5.5.5,0,0,0-.5-.5Z" transform="translate(-230.17 -214.02)"/><path class="cls-14" d="M567.41,393.31c0-.72,0-1.45,0-2.17a.5.5,0,0,0-.5-.5.5.5,0,0,0-.5.5c0,.72-.05,1.45,0,2.17a.5.5,0,1,0,1,0Z" transform="translate(-230.17 -214.02)"/><path class="cls-14" d="M567.54,392.28a13.33,13.33,0,0,0-1.32-7.14,13.13,13.13,0,0,0-2-3,4.54,4.54,0,0,0-3-1.79c-.41,0-.57.44-.43.75.38.85,1.21,1.31,1.79,2a7.83,7.83,0,0,1,1.24,2.4,17.73,17.73,0,0,0,2,4.87c.22.3.83.35.91-.12a5.88,5.88,0,0,0-.8-3.36c-.55-1.24-1.18-2.44-1.81-3.63l-.86.5,1,1.4c.36.52,1.23,0,.86-.51l-1-1.39a.5.5,0,0,0-.86.5c.53,1,1,2,1.53,3s1.16,2.13,1,3.19l.91-.12c-1.09-1.46-1.43-3.26-2.06-4.93a8.43,8.43,0,0,0-1.16-2.25c-.56-.73-1.47-1.23-1.86-2.08l-.43.75c1.08.08,1.91,1.06,2.55,1.84a12.4,12.4,0,0,1,2.72,9c-.06.64.94.63,1,0Z" transform="translate(-230.17 -214.02)"/><path class="cls-14" d="M498.68,437.28l-1,1.7.91.38a7.93,7.93,0,0,1,.58-1.49l-.91-.39-.56,1.49c-.16.41-.45.91-.25,1.35a.63.63,0,0,0,.57.39.82.82,0,0,0,.64-.37,5.22,5.22,0,0,0,.79-1.24l-.92-.39c-.48,1.36-1,2.7-1.54,4a.51.51,0,0,0,.35.62A.52.52,0,0,0,498,443c.54-1.33,1.06-2.68,1.54-4,.19-.53-.69-.91-.91-.39a6.88,6.88,0,0,1-.35.66l-.19.28-.12.14c-.08.07-.09.09,0,.06h.3l.18.18s0,.07,0,0a.81.81,0,0,0,.11-.27l.24-.64.48-1.29c.2-.53-.66-.89-.91-.39a8.6,8.6,0,0,0-.68,1.74.5.5,0,0,0,.91.38l1-1.69c.32-.56-.55-1.07-.86-.51Z" transform="translate(-230.17 -214.02)"/><path class="cls-14" d="M498.11,446c.76-.36.85-1.23.95-2l.43-3.14-1-.13-.15,1.27a.5.5,0,0,0,.75.44c.81-.57.73-1.56.86-2.44a6.56,6.56,0,0,1,1.08-2.84.5.5,0,0,0-.43-.75,3.15,3.15,0,0,0-2.32,1.28c-.34.45.41,1,.79.6l.81-.92-.86-.35a3.19,3.19,0,0,1-.25,1l.93.25,0-.52-.5.5c.92,0,1.37-.76,1.63-1.51s-.75-.87-1-.26c-.11.32-.25.79-.67.77a.51.51,0,0,0-.5.5l0,.52c0,.48.73.71.93.26a4.49,4.49,0,0,0,.39-1.52.5.5,0,0,0-.85-.35l-.81.92.78.6a2.05,2.05,0,0,1,1.46-.78l-.44-.76a6.73,6.73,0,0,0-1.06,2.51q-.14.63-.21,1.29c0,.32,0,.91-.3,1.12l.75.43.15-1.27c.07-.55-.91-.69-1-.13l-.36,2.63c-.07.5,0,1.62-.56,1.88s-.08,1.13.5.86Z" transform="translate(-230.17 -214.02)"/><path class="cls-12" d="M539.08,262.16h.1a1.64,1.64,0,0,0,.32,0,1.74,1.74,0,0,0,.5-.27,9.14,9.14,0,0,0,.84-.67,3.57,3.57,0,0,0,.64-.8,4.59,4.59,0,0,0,.42-1.14.5.5,0,0,0-.84-.48,2.49,2.49,0,0,0-.41.45,4.45,4.45,0,0,0-.26.48,3.17,3.17,0,0,1-.68.79,1.43,1.43,0,0,1-.75.46,7.73,7.73,0,0,1-1.27-.07.48.48,0,0,0-.48.37.57.57,0,0,0,.06.44.51.51,0,0,0,.68.18.51.51,0,0,0,.18-.69v0l0,.38v0l-.48.37a6,6,0,0,0,1.34.06,1.57,1.57,0,0,0,.7-.2,3.2,3.2,0,0,0,.55-.42,5.63,5.63,0,0,0,.85-.91c.11-.17.19-.35.29-.53a1.24,1.24,0,0,1,.35-.41l-.84-.48a3.72,3.72,0,0,1-.32.9,2.81,2.81,0,0,1-.52.63,6.78,6.78,0,0,1-.67.53.83.83,0,0,1-.24.13,1.77,1.77,0,0,0-.6.15.5.5,0,0,0,.5.86Z" transform="translate(-230.17 -214.02)"/></svg>